<?xml version="1.0" encoding="UTF-8"?>
<svg width="306px" height="98px" viewBox="0 0 306 98" version="1.1" xmlns="http://www.w3.org/2000/svg" xmlns:xlink="http://www.w3.org/1999/xlink">
    <!-- Generator: Sketch 46.2 (44496) - http://www.bohemiancoding.com/sketch -->
    <title>LUGY logo</title>
    <desc>Created with Sketch.</desc>
    <defs>
        <polygon id="path-1" points="0 97.6489996 305.523676 97.6489996 305.523676 0 0 0"></polygon>
    </defs>
    <g id="Page-1" stroke="none" stroke-width="1" fill="none" fill-rule="evenodd">
        <g id="Homepage-Desktop" transform="translate(-442.000000, -2064.000000)">
            <g id="LUGY" transform="translate(310.000000, 2064.000000)">
                <g id="LUGY-logo" transform="translate(132.000000, 0.000000)">
                    <path d="M201.678354,81.7965511 C200.366275,84.673915 198.151833,86.1132448 195.036265,86.1132448 C192.905995,86.1132448 191.255994,85.2309913 190.086263,83.46778 C188.914057,81.7045687 188.331049,79.2935943 188.331049,76.2387433 C188.331049,72.828918 188.922722,70.2495252 190.107306,68.5005647 C191.29189,66.7516041 192.94808,65.8771239 195.078351,65.8771239 C198.166687,65.8771239 200.366275,67.4343465 201.678354,70.5487917 L201.678354,81.7965511 Z M201.679591,36.0450397 L201.678354,53.9660551 L201.678354,67.4045494 C200.055585,64.8510671 197.70127,63.5749736 194.612934,63.5749736 C191.89099,63.5749736 189.737201,64.6774665 188.150329,66.8837478 C186.563456,69.0913246 185.77002,72.0541933 185.77002,75.7749448 L185.77002,76.0832801 C185.77002,79.8623303 186.57831,82.8627693 188.192414,85.0833013 C189.806518,87.305129 191.933076,88.415395 194.570849,88.415395 C197.714886,88.415395 200.098908,87.206669 201.720439,84.7853303 L201.825653,87.9736205 L204.194821,87.9736205 L204.194821,53.9660551 L204.186156,36.0450397 L201.679591,36.0450397 Z" id="Fill-1" fill="#151616"></path>
                    <path d="M27.7274377,77.6784616 C27.8561699,77.3623532 27.9873778,77.0449493 28.2039945,76.7275453 C30.0668985,73.5522104 32.5375671,71.2396959 33.7060597,70.6502314 L34.2692632,70.6502314 C33.7927064,73.189463 29.2004315,78.1785348 27.2075575,79.0400598 C27.2508809,78.8133427 27.4241743,78.1785348 27.7274377,77.6784616 M42.4152904,79.9469282 C41.0722666,81.5339479 32.1464192,87.520575 29.0271381,87.520575 C26.8176474,87.520575 26.0378271,85.6148558 26.0378271,83.801119 C26.0378271,83.3930282 26.2098827,81.8513519 26.5577073,81.0805137 C27.3808509,81.8060084 28.3772879,82.5315032 28.9392536,82.5315032 C29.9369285,82.5315032 35.2236147,76.9529669 35.6989337,76.0914419 C36.478754,74.6857959 37.9096623,72.5546551 37.9096623,70.5142012 C37.9096623,69.6526762 36.0467583,67.7029091 34.9636746,67.7029091 C34.48588,67.7029091 34.9203513,68.0203131 34.4437944,68.0203131 C34.0972076,68.0203131 33.8372676,67.5202399 33.4461196,67.5202399 C30.0607094,67.5202399 25.7172344,73.0987762 23.7169335,78.1940811 L5.93703158,83.7557755 C5.89247042,83.7557755 5.80582373,83.6650887 5.58920699,83.4383716 C8.2319312,76.7275453 10.6159531,70.3781709 13.5619408,63.8020794 C15.078258,60.5386486 18.9340359,53.6892011 18.9340359,53.5091229 C18.9340359,52.8276761 17.4610421,50.877909 16.5091663,50.877909 C14.081821,50.877909 0.000495123975,87.6553097 0.000495123975,88.4714913 C0.000495123975,88.9715644 1.4301656,91.4188136 2.08001582,91.4188136 C3.5096863,91.4188136 3.94291977,88.8342386 5.89247042,87.8820268 C9.99828599,85.6692679 18.4314851,82.8722266 22.8665581,80.94837 C22.7068806,81.6894111 22.6140449,82.3941774 22.6140449,83.0302808 C22.6140449,85.4334821 24.9114201,92.2349952 34.2259399,89.1516426 C34.9203513,88.8342386 35.266938,88.064696 35.5702015,87.9273702 C36.0900816,87.6099663 36.9986341,87.6099663 37.4764288,87.2925623 C38.3849813,86.7484413 38.9060993,86.0695855 39.6425962,85.5695124 C39.5126261,85.2521084 39.4693028,84.7533308 39.8158896,84.7533308 L40.249123,84.7533308 L40.6390332,85.1160782 C41.11559,82.7582203 43.1951107,82.4861598 43.1951107,80.7177664 C43.1951107,80.2189887 42.7185539,79.9469282 42.4152904,79.9469282" id="Fill-3" fill="#989898"></path>
                    <path d="M59.8754661,69.4713025 C59.4409948,69.4713025 54.7187499,70.0154236 54.2855164,70.0154236 C54.0701374,70.0154236 53.5923428,70.1061104 53.2024327,70.1501583 L52.4659358,70.2421407 L59.2689392,55.5495769 C59.2689392,54.8227866 57.5793286,53.2370624 57.1460951,53.2370624 C56.5395683,53.2370624 53.0724626,60.7187268 51.4694988,65.3903947 C51.1662353,66.3866544 50.2131217,68.2923736 50.126475,68.3817649 C49.7365649,69.2445854 49.4320636,69.8340499 49.2166847,70.2421407 C49.0867146,70.5142012 48.9134213,70.7396228 48.7834512,70.9676354 C46.9193094,71.6931301 44.2765852,71.9651906 43.9299984,72.6906854 C43.9299984,74.8671696 46.1394892,76.1834243 46.1394892,76.8622801 C46.1394892,78.2679261 43.5846495,81.9873821 43.5846495,85.1614216 C43.5846495,85.9776031 44.1466152,88.2447742 45.0130821,88.6982084 L45.3163456,88.8342386 C45.4908768,88.8795821 45.7508169,88.8795821 45.9674336,88.6982084 C46.8772239,86.7484413 48.6968045,82.2594427 48.8267746,80.4910493 C48.133601,79.4028072 49.7798882,76.4554848 50.6896785,74.8671696 C51.0808265,74.1870183 52.4226124,74.0056446 52.9870538,73.7789275 C55.0653366,73.0534327 58.7057357,72.2825946 61.4351066,71.783817 C62.3015735,71.6477867 64.2511242,71.1490091 64.382332,70.6502314 L64.5110643,70.2421407 C64.5543876,69.9700801 64.5110643,69.743363 64.382332,69.5166459 C63.0813938,69.1538986 60.9585497,69.4713025 59.8754661,69.4713025" id="Fill-5" fill="#989898"></path>
                    <path d="M100.815039,79.0852737 C100.815039,78.6771829 100.641746,78.7225263 100.641746,78.5411526 L100.035219,78.5411526 C99.1254289,79.4467255 98.3022853,80.5362631 98.3456086,81.4431315 C98.2156386,81.5791618 98.5622254,81.7151921 98.1723153,81.7151921 C97.6957584,81.7151921 97.4791417,81.7151921 97.1758783,81.5338184 C96.6114369,82.1232828 93.4500703,85.5693828 92.0637232,86.069456 C91.5871664,85.8414433 91.3259885,84.1183933 91.3259885,83.8009894 C91.3259885,79.9908465 93.4500703,75.3217697 95.0530342,71.9197177 C95.1830043,71.6023137 95.4850299,71.2849098 95.4850299,70.9221624 C95.4850299,70.7407887 93.7100104,69.2444559 93.1901303,69.2444559 C92.7989823,69.2444559 92.2791021,69.4258295 92.1503699,69.8339203 C91.6292519,72.2371216 81.9669076,86.069456 79.4974767,86.069456 C79.1088044,86.069456 79.1088044,85.3426657 79.1088044,84.9799183 C79.1088044,79.9014552 84.7408396,70.4220893 84.7408396,70.332698 C84.7408396,69.5605643 82.8779357,68.4269788 82.0114687,68.4269788 C81.5349119,68.4269788 81.7069675,68.609648 81.5349119,68.609648 C81.403704,69.471173 81.2316485,70.2873545 81.2316485,70.9675058 C80.8838239,70.9675058 81.1883251,70.7861322 80.7971772,70.7861322 C80.5805604,70.7861322 80.277297,71.738344 80.3206203,72.3278085 C80.1918881,72.5091821 79.931948,72.4184953 79.8007402,72.5545256 C78.414393,75.6832216 76.0749323,80.7176368 76.0749323,84.299767 C76.0749323,84.7078578 76.421519,86.1588473 76.8980759,86.8856375 C77.5046027,87.8818973 79.7140935,89.198152 82.3147322,88.1539578 C83.7010793,86.930981 86.4304502,84.299767 88.0334141,82.0313005 C88.0767374,83.1208381 88.2933541,84.0277065 88.4666475,84.9799183 C88.8144721,86.7483117 91.2405796,88.880748 92.755659,88.880748 C93.1468069,88.880748 93.2755391,88.880748 94.1420061,88.5620486 C96.0061479,87.9725841 97.8690518,84.8892315 98.0856686,84.1637368 C98.4322553,83.755646 98.7788421,83.8916762 98.9521355,83.7103026 C99.0387822,83.6196157 100.815039,80.3535939 100.815039,79.0852737" id="Fill-7" fill="#989898"></path>
                    <path d="M110.60624,65.661937 C108.050162,65.661937 104.323117,66.1607146 104.193147,71.2845211 C104.019853,72.3740587 105.79611,82.9390758 105.624055,84.0286134 C105.969404,87.1573094 103.110063,87.7467739 102.286919,87.7467739 C101.897009,87.7467739 100.770602,87.111966 100.770602,86.250441 C100.770602,85.7516634 101.637069,85.1621989 101.680392,84.6621257 C101.680392,84.2553305 101.637069,84.2086915 101.333806,84.0286134 C100.943895,83.936631 100.553985,83.98327 100.120752,84.1180047 C99.4275783,84.4354086 98.7344047,85.6143376 98.7344047,85.8410547 C98.6044347,88.6976902 101.767039,90.6487528 103.889883,90.7847831 C107.182458,90.9661567 108.873306,88.8803594 109.003276,85.9783805 C109.003276,82.3496113 107.399074,74.5492474 107.399074,73.5076443 C107.182458,70.0149053 108.178895,68.6558983 111.12612,68.6999462 C111.254852,68.6999462 112.252527,68.8359764 112.252527,69.4707843 C112.252527,69.9695619 110.951589,71.2845211 110.951589,71.7379553 C110.951589,71.9646724 111.299413,72.9635232 112.469144,73.0088666 L113.16108,73.098258 C114.549902,73.098258 115.978335,70.3789482 115.978335,69.9695619 C115.978335,67.3396435 112.469144,65.661937 110.60624,65.661937" id="Fill-9" fill="#989898"></path>
                    <path d="M144.11784,81.7294428 C142.820615,84.6521502 140.6136,86.1135039 137.496794,86.1135039 C135.367761,86.1135039 133.717761,85.2312504 132.546792,83.4680391 C131.375824,81.7035323 130.791578,79.2938534 130.791578,76.2390024 C130.791578,72.8291771 131.384489,70.2497843 132.569073,68.5008238 C133.753657,66.7505677 135.409847,65.877383 137.540118,65.877383 C139.104709,65.877383 140.44402,66.2789961 141.559286,67.083518 C142.672078,67.8880398 143.524929,69.0579001 144.11784,70.5918032 L144.11784,81.7294428 Z M144.182206,67.4708803 C142.559437,64.8733501 140.190269,63.5739372 137.074701,63.5739372 C134.351519,63.5739372 132.19773,64.6699525 130.612095,66.861983 C129.025223,69.0540135 128.231787,72.0246553 128.231787,75.7739084 L128.231787,76.1288826 C128.231787,79.891091 129.035126,82.8811657 130.643041,85.0952202 C132.250956,87.3092746 134.379989,88.4156541 137.031378,88.4156541 C140.133329,88.4156541 142.496309,87.2354296 144.11784,84.8736852 L144.11784,87.8844883 C144.076992,90.2008893 143.463038,92.0133306 142.278454,93.3192212 C141.09387,94.6264072 139.443869,95.2793525 137.328452,95.2793525 C134.860259,95.2793525 132.729988,94.1276296 130.940115,91.8254793 L129.522823,93.4189767 C130.354631,94.6587954 131.493416,95.6511685 132.939178,96.3973917 C134.383702,97.1423193 135.902495,97.5154309 137.496794,97.5154309 C140.317763,97.5154309 142.553248,96.6150401 144.202011,94.815554 C145.853249,93.013477 146.677631,90.5701143 146.677631,87.4854662 L146.677631,64.0170072 L144.308462,64.0170072 L144.182206,67.4708803 Z" id="Fill-11" fill="#151616"></path>
                    <path d="M167.958925,81.3537402 C166.986007,84.5264841 164.666351,86.1135039 160.999958,86.1135039 C157.473437,86.1135039 155.709558,83.8333776 155.709558,79.2718294 L155.709558,64.0170072 L153.193091,64.0170072 L153.193091,79.6034842 C153.22156,82.5132363 153.870173,84.7078578 155.140166,86.1899399 C156.408921,87.6746131 158.26316,88.4156541 160.702884,88.4156541 C164.046208,88.4156541 166.478505,87.2574536 168.001011,84.939757 L168.043097,87.9725841 L170.497674,87.9725841 L170.497674,64.0170072 L167.958925,64.0170072 L167.958925,81.3537402 Z" id="Fill-13" fill="#151616"></path>
                    <mask id="mask-2" fill="white">
                        <use xlink:href="#path-1"></use>
                    </mask>
                    <g id="Clip-16"></g>
                    <polygon id="Fill-15" fill="#151616" mask="url(#mask-2)" points="177.373213 87.9727137 179.911961 87.9727137 179.911961 64.0171368 177.373213 64.0171368"></polygon>
                    <path d="M178.662887,55.3166412 C178.126915,55.3166412 177.704822,55.4889462 177.394132,55.8322607 C177.084679,56.1781662 176.929953,56.5992123 176.929953,57.0979899 C176.929953,57.598063 177.084679,58.0152225 177.394132,58.3520594 C177.704822,58.6901917 178.126915,58.8586101 178.662887,58.8586101 C179.200096,58.8586101 179.625903,58.6901917 179.942782,58.3520594 C180.2609,58.0152225 180.419339,57.598063 180.419339,57.0979899 C180.419339,56.5992123 180.2609,56.1781662 179.942782,55.8322607 C179.625903,55.4889462 179.200096,55.3166412 178.662887,55.3166412" id="Fill-17" fill="#151616" mask="url(#mask-2)"></path>
                    <path d="M225.793986,73.9145691 L212.065436,73.9145691 C212.347656,71.4491825 213.139855,69.4864602 214.444506,68.023811 C215.749158,66.5637528 217.35336,65.833076 219.258349,65.833076 C221.175717,65.833076 222.726693,66.5559797 223.911277,68.0030826 C225.097099,69.4501854 225.722193,71.3235165 225.793986,73.6256667 L225.793986,73.9145691 Z M219.258349,63.5749736 C217.480854,63.5749736 215.829616,64.1022529 214.307109,65.1568113 C212.783365,66.2139607 211.595068,67.6636547 210.743455,69.5084841 C209.889366,71.3533136 209.463559,73.4261557 209.463559,75.7283059 L209.463559,76.6818133 C209.463559,78.9101185 209.899268,80.9207753 210.7744,82.7150793 C211.648294,84.5080877 212.872488,85.9072561 214.444506,86.9099934 C216.017763,87.9153218 217.775453,88.415395 219.722528,88.415395 C223.262664,88.415395 225.963566,87.0058624 227.825232,84.1880927 L226.237122,82.9249545 C225.391697,84.0624266 224.450962,84.8889724 223.413677,85.4045919 C222.37763,85.9228024 221.181906,86.1793166 219.82898,86.1793166 C217.571214,86.1793166 215.699646,85.2763348 214.213036,83.46778 C212.723951,81.6605208 211.981265,79.3972364 211.981265,76.6818133 L211.981265,76.1713759 L228.311691,76.1713759 L228.311691,74.6892938 C228.311691,71.2496715 227.497212,68.5381349 225.868254,66.5520931 C224.239296,64.5673468 222.035995,63.5749736 219.258349,63.5749736 L219.258349,63.5749736 Z" id="Fill-18" fill="#151616" mask="url(#mask-2)"></path>
                    <path d="M251.030083,84.1649027 L243.922579,64.0168777 L241.15236,64.0168777 L249.782371,87.7729435 L248.660915,91.0065772 C248.124943,92.5702774 247.472618,93.6740658 246.705175,94.3166469 C245.936495,94.9579324 244.930156,95.2792229 243.68987,95.2792229 L242.37903,95.1470792 L242.398835,97.3378142 C243.09077,97.5450984 243.739383,97.6487405 244.34591,97.6487405 C246.968829,97.6487405 248.907239,96.1938645 250.163616,93.2867034 L250.671118,92.0468848 L260.443628,64.0168777 L257.714257,64.0168777 L251.030083,84.1649027 Z" id="Fill-19" fill="#151616" mask="url(#mask-2)"></path>
                    <path d="M280.562248,76.1501293 C280.562248,79.1609324 279.852983,81.5848621 278.43569,83.4232139 C277.018398,85.2602702 275.167872,86.1787984 272.882875,86.1787984 C270.583024,86.1787984 268.725071,85.2602702 267.309017,83.4232139 C265.890487,81.5848621 265.182459,79.2360729 265.182459,76.3716643 L265.182459,75.8845464 C265.182459,72.887994 265.8942,70.4640643 267.318919,68.6114617 C268.743639,66.7588591 270.583024,65.8325578 272.840789,65.8325578 C274.348442,65.8325578 275.687752,66.2497173 276.859958,67.0840362 C278.029689,67.9183551 278.939479,69.0959885 279.588091,70.6156409 C280.236704,72.1352933 280.562248,73.8104088 280.562248,75.6396919 L280.562248,76.1501293 Z M272.840789,63.5744554 C270.865245,63.5744554 269.09889,64.0874839 267.540487,65.1122452 C265.983322,66.138302 264.776458,67.5750407 263.924845,69.4198701 C263.070756,71.2646996 262.643711,73.3375417 262.643711,75.6396919 L262.643711,76.1721532 C262.643711,79.8618121 263.591874,82.8246808 265.489436,85.0620547 C267.385761,87.2968376 269.850241,88.4161723 272.882875,88.4161723 C274.870798,88.4161723 276.640866,87.9148036 278.19308,86.9107707 C279.744056,85.9067379 280.945969,84.4790679 281.79882,82.6264653 C282.651671,80.7738626 283.078715,78.6893608 283.078715,76.3716643 L283.078715,75.817179 C283.078715,72.1288156 282.134266,69.1646514 280.244131,66.928573 C278.353995,64.6924946 275.88704,63.5744554 272.840789,63.5744554 L272.840789,63.5744554 Z" id="Fill-20" fill="#151616" mask="url(#mask-2)"></path>
                    <path d="M302.985422,64.0171368 L302.985422,81.3538698 C302.012504,84.5266137 299.692848,86.1136334 296.026455,86.1136334 C292.499934,86.1136334 290.736055,83.8335071 290.736055,79.2706635 L290.736055,64.0171368 L288.219588,64.0171368 L288.219588,79.6036137 C288.248057,82.5120703 288.89667,84.7079874 290.166663,86.1900695 C291.435418,87.6747426 293.289657,88.4157837 295.729381,88.4157837 C299.072705,88.4157837 301.505002,87.2562876 303.027508,84.9385911 L303.069594,87.9727137 L305.524171,87.9727137 L305.524171,64.0171368 L302.985422,64.0171368 Z" id="Fill-21" fill="#151616" mask="url(#mask-2)"></path>
                    <path d="M203.266711,0 L170.749444,0 L158.424571,0 C155.758328,0 151.226706,8.24732045 149.575467,10.3214581 C149.093959,10.9251733 149.111289,11.5923694 149.575467,12.1986757 L154.268005,18.3316972 C155.129521,19.4588051 156.582709,22.4579485 158.044563,22.877699 C161.423784,23.8506393 166.195541,22.9256335 169.657696,22.9256335 L203.266711,22.9256335 C203.958647,22.9256335 204.535466,22.3206227 204.535466,21.597719 L204.535466,1.32791446 C204.535466,-0.384771312 201.997956,-0.384771312 201.997956,1.32791446 L201.997956,21.597719 L203.266711,20.2698045 L171.8709,20.2698045 L158.767444,20.2698045 C157.841562,20.2698045 159.622771,21.1093056 158.938262,20.2153924 C157.980197,18.961323 157.020894,17.7072535 156.061591,16.4531841 C154.498238,14.4101391 152.933646,12.3657986 151.369054,10.3214581 L151.369054,12.1986757 C152.819767,10.3784612 154.269243,8.55695124 155.718718,6.73673678 C156.630984,5.59149153 157.544488,4.44624627 158.456754,3.30100102 C159.570783,1.90053709 158.325546,2.65712445 158.767444,2.65712445 L171.8709,2.65712445 L203.266711,2.65712445 C204.903096,2.65712445 204.903096,0 203.266711,0" id="Fill-22" fill="#151616" mask="url(#mask-2)"></path>
                    <path d="M202.942776,22.9260221 L233.193613,22.9260221 L247.14992,22.9260221 C248.183492,22.9260221 247.402434,23.1294198 247.031091,22.6630303 C247.926027,23.7862516 248.819726,24.9094729 249.714663,26.0313987 C251.42284,28.1780858 253.132256,30.3234773 254.840434,32.4675734 L254.840434,30.5903557 C253.520928,32.3134057 252.203898,34.0351602 250.884393,35.7582102 C249.979554,36.9436167 249.073477,38.1277278 248.166162,39.3118388 C247.222951,40.5464754 246.800858,40.5387022 247.653709,40.5387022 L234.338588,40.5387022 L202.942776,40.5387022 L204.211532,41.8666167 L204.211532,21.5981077 C204.211532,19.8841264 201.674021,19.8841264 201.674021,21.5981077 L201.674021,41.8666167 C201.674021,42.5908159 202.250841,43.1958267 202.942776,43.1958267 L236.551792,43.1958267 L247.82824,43.1958267 C250.438781,43.1958267 255.044672,34.5468931 256.63402,32.4675734 C257.098199,31.861267 257.115528,31.194071 256.63402,30.5903557 C255.012489,28.5550839 250.43383,20.2688977 247.82824,20.2688977 L236.551792,20.2688977 L202.942776,20.2688977 C201.306392,20.2688977 201.306392,22.9260221 202.942776,22.9260221" id="Fill-23" fill="#151616" mask="url(#mask-2)"></path>
                </g>
            </g>
        </g>
    </g>
</svg>