<svg id="Layer_1" data-name="Layer 1" xmlns="http://www.w3.org/2000/svg" viewBox="0 0 104 20"><defs><style>.cls-1{fill:#282828;}.cls-2{fill:#f9a11b;}</style></defs><title>0.5-stars</title><polyline class="cls-1" points="10.27 1 13.2 6.92 19.74 7.88 15 12.49 16.12 19 10.27 15.93"/><polyline class="cls-2" points="10.27 15.93 4.42 19 5.54 12.49 0.81 7.88 7.35 6.92 10.27 1"/><polygon class="cls-1" points="31.14 1 34.06 6.92 40.6 7.88 35.87 12.49 36.98 19 31.14 15.93 25.29 19 26.41 12.49 21.67 7.88 28.21 6.92 31.14 1"/><polygon class="cls-1" points="93.73 1 96.65 6.92 103.19 7.88 98.46 12.49 99.58 19 93.73 15.93 87.88 19 89 12.49 84.26 7.88 90.8 6.92 93.73 1"/><polygon class="cls-1" points="72.86 1 75.79 6.92 82.33 7.88 77.59 12.49 78.71 19 72.86 15.93 67.02 19 68.13 12.49 63.4 7.88 69.94 6.92 72.86 1"/><polygon class="cls-1" points="52 1 54.92 6.92 61.46 7.88 56.73 12.49 57.85 19 52 15.93 46.15 19 47.27 12.49 42.54 7.88 49.08 6.92 52 1"/></svg>