<svg id="Layer_1" data-name="Layer 1" xmlns="http://www.w3.org/2000/svg" viewBox="0 0 28 28"><defs><style>.cls-1{fill:#282828;}</style></defs><title>360-view</title><path class="cls-1" d="M10,12.43a1.26,1.26,0,0,1,.44,1,1.28,1.28,0,0,1-.2.71,1.17,1.17,0,0,1-.54.45v0a1.34,1.34,0,0,1,.69.55,1.63,1.63,0,0,1,.23.87,1.58,1.58,0,0,1-.5,1.23,1.85,1.85,0,0,1-1.3.45,4.82,4.82,0,0,1-.75-.06,2.27,2.27,0,0,1-.69-.21.43.43,0,0,1-.29-.38.62.62,0,0,1,.06-.23,1.25,1.25,0,0,1,.15-.26.24.24,0,0,1,.17-.12.66.66,0,0,1,.21.08,3.3,3.3,0,0,0,.44.18,1.67,1.67,0,0,0,.5.07.8.8,0,0,0,.57-.2A.74.74,0,0,0,9.44,16a.78.78,0,0,0-.22-.61,1,1,0,0,0-.71-.2H8.29a.19.19,0,0,1-.18-.1.62.62,0,0,1-.06-.3v-.14a.62.62,0,0,1,.06-.3.19.19,0,0,1,.18-.1h.15a.92.92,0,0,0,.6-.18.59.59,0,0,0,.22-.48.66.66,0,0,0-.16-.47A.63.63,0,0,0,8.61,13a1.56,1.56,0,0,0-.44.05,2.05,2.05,0,0,0-.33.13.39.39,0,0,1-.17.06q-.12,0-.26-.22a.74.74,0,0,1-.14-.39q0-.28.45-.43a3.45,3.45,0,0,1,1.09-.15A1.77,1.77,0,0,1,10,12.43Z"/><path class="cls-1" d="M14.36,12.21a1,1,0,0,1,.14.28,1,1,0,0,1,0,.25.25.25,0,0,1,0,.12.13.13,0,0,1-.08,0,2.87,2.87,0,0,0-1.07.59,2.2,2.2,0,0,0-.65,1,1.62,1.62,0,0,1,1.49,0,1.5,1.5,0,0,1,.61.54,1.71,1.71,0,0,1,.25,1,1.75,1.75,0,0,1-.27,1,1.61,1.61,0,0,1-.69.58,2.2,2.2,0,0,1-.9.19,2,2,0,0,1-.91-.21,1.65,1.65,0,0,1-.69-.67,2.33,2.33,0,0,1-.27-1.19,3.47,3.47,0,0,1,.61-2.15,3.51,3.51,0,0,1,1.29-1.11,2.89,2.89,0,0,1,.91-.31A.26.26,0,0,1,14.36,12.21ZM12.54,15.4q0,.12,0,.36a1.34,1.34,0,0,0,.19.8.59.59,0,0,0,.5.25.6.6,0,0,0,.48-.23.88.88,0,0,0,.19-.59.82.82,0,0,0-.19-.58.68.68,0,0,0-.53-.21A1.31,1.31,0,0,0,12.54,15.4Z"/><path class="cls-1" d="M18.44,12.39a2.13,2.13,0,0,1,.65,1,4.59,4.59,0,0,1,.23,1.53,4.6,4.6,0,0,1-.23,1.53,2.12,2.12,0,0,1-.65,1,1.67,1.67,0,0,1-2,0,2.12,2.12,0,0,1-.65-1,4.6,4.6,0,0,1-.23-1.53,4.59,4.59,0,0,1,.23-1.53,2.13,2.13,0,0,1,.65-1,1.67,1.67,0,0,1,2,0Zm-1.52,1.08a4.35,4.35,0,0,0-.18,1.43,4.35,4.35,0,0,0,.18,1.43q.18.48.51.48t.51-.48a4.35,4.35,0,0,0,.18-1.43,4.35,4.35,0,0,0-.18-1.43q-.18-.48-.51-.48T16.92,13.47Z"/><path class="cls-1" d="M21.44,12.2a1.07,1.07,0,0,1,.38.39,1,1,0,0,1,.14.53,1,1,0,0,1-.14.52,1.08,1.08,0,0,1-.38.38,1,1,0,0,1-.53.14,1,1,0,0,1-.53-.14,1,1,0,0,1-.38-.38,1,1,0,0,1-.14-.53,1,1,0,0,1,.14-.53,1.08,1.08,0,0,1,.38-.39,1,1,0,0,1,.52-.14A1,1,0,0,1,21.44,12.2Zm-.9.52a.56.56,0,0,0-.15.4.55.55,0,0,0,.15.39.5.5,0,0,0,.38.16.51.51,0,0,0,.38-.16.54.54,0,0,0,.16-.39.56.56,0,0,0-.16-.4.51.51,0,0,0-.38-.17A.5.5,0,0,0,20.53,12.72Z"/><path class="cls-1" d="M22.34,3.5c0-.59,0-1.07,0-1.54a1.36,1.36,0,1,1,2.72,0c0,1.21,0,2.43,0,3.64q0,1.24,0,2.48a2.21,2.21,0,0,1-.28,0c-2,0-4,0-6,0a1.34,1.34,0,0,1-1.26-1.84,1.29,1.29,0,0,1,1.25-.87c.42,0,.85,0,1.28-.06a8.34,8.34,0,0,0-3-1.58A10.38,10.38,0,0,0,3.74,12.11a20.42,20.42,0,0,0-.08,2.76c0,.26,0,.52,0,.78a1.4,1.4,0,0,1-1.36,1.45A1.4,1.4,0,0,1,1,15.87C.15,8.5,4.27,2.93,10.14,1.12A12.76,12.76,0,0,1,21.89,3.18Z"/><path class="cls-1" d="M8.91,26.35a1.92,1.92,0,0,1-.5-.14,20.6,20.6,0,0,1-1.84-1,1.31,1.31,0,0,1-.32-1.84A1.37,1.37,0,0,1,8,22.9c.55.3,1.1.6,1.65.91a1.35,1.35,0,0,1,.66,1.57A1.42,1.42,0,0,1,8.91,26.35Z"/><path class="cls-1" d="M5.65,20.79a1.38,1.38,0,0,1-.73,1.34A1.24,1.24,0,0,1,3.49,22,4.72,4.72,0,0,1,2,19.64a1.3,1.3,0,0,1,.79-1.47,1.33,1.33,0,0,1,1.65.44c.39.55.74,1.13,1.08,1.71A1.77,1.77,0,0,1,5.65,20.79Z"/><path class="cls-1" d="M13.65,24.77H14A1.35,1.35,0,1,1,14,27.48a4.48,4.48,0,0,1-.87,0A1.38,1.38,0,0,1,11.94,26a1.36,1.36,0,0,1,1.44-1.26l.28,0Z"/><path class="cls-1" d="M23.78,22.6a1.63,1.63,0,0,1-1.5,1.52,1.41,1.41,0,0,1-1.38-1.38,1.57,1.57,0,0,1,1.5-1.51A1.41,1.41,0,0,1,23.78,22.6Z"/><path class="cls-1" d="M19.95,25.19a1.48,1.48,0,0,1-1.58,1.44A1.36,1.36,0,0,1,17,25.3a1.52,1.52,0,0,1,1.59-1.44A1.32,1.32,0,0,1,19.95,25.19Z"/><path class="cls-1" d="M26.31,18.71a1.49,1.49,0,0,1-1.39,1.55,1.35,1.35,0,0,1-1.39-1.35A1.5,1.5,0,0,1,25,17.35,1.37,1.37,0,0,1,26.31,18.71Z"/><path class="cls-1" d="M25.78,16.1a1.38,1.38,0,0,1-1.38-1.38,1.39,1.39,0,0,1,1.38-1.38,1.42,1.42,0,0,1,1.35,1.42A1.35,1.35,0,0,1,25.78,16.1Z"/></svg>