<svg id="Layer_1" data-name="Layer 1" xmlns="http://www.w3.org/2000/svg" viewBox="0 0 22 22"><defs><style>.cls-1{fill:#a30517;}</style></defs><title>attention</title><path class="cls-1" d="M6,2.34A9.78,9.78,0,0,1,11,1a9.79,9.79,0,0,1,5,1.34A10,10,0,0,1,19.66,6,9.79,9.79,0,0,1,21,11a9.78,9.78,0,0,1-1.34,5A10,10,0,0,1,16,19.66,9.79,9.79,0,0,1,11,21a9.78,9.78,0,0,1-5-1.34A10,10,0,0,1,2.34,16,9.78,9.78,0,0,1,1,11,9.78,9.78,0,0,1,2.34,6,10,10,0,0,1,6,2.34Zm6.66,10.42.23-8.08a.26.26,0,0,0-.13-.23.49.49,0,0,0-.31-.1H9.57a.49.49,0,0,0-.31.1.26.26,0,0,0-.13.23l.22,8.08a.28.28,0,0,0,.13.23.5.5,0,0,0,.31.1H12.2a.48.48,0,0,0,.31-.1A.33.33,0,0,0,12.64,12.76Zm0,4.48V14.76a.43.43,0,0,0-.12-.31.38.38,0,0,0-.29-.12H9.76a.44.44,0,0,0-.43.43v2.47a.44.44,0,0,0,.43.43h2.5a.38.38,0,0,0,.29-.12A.43.43,0,0,0,12.67,17.24Z"/></svg>