<svg id="Layer_1" data-name="Layer 1" xmlns="http://www.w3.org/2000/svg" viewBox="0 0 48 48"><defs><style>.cls-1{fill:#ffc000;}.cls-2{fill:#fff;}</style></defs><title>back--to-top-hover</title><rect x="2.5" y="2.5" width="43" height="43" rx="12.65" ry="12.65"/><path class="cls-1" d="M32.85,47H15.15A14.16,14.16,0,0,1,1,32.85V15.15A14.16,14.16,0,0,1,15.15,1h17.7A14.16,14.16,0,0,1,47,15.15v17.7A14.16,14.16,0,0,1,32.85,47ZM15.15,4A11.16,11.16,0,0,0,4,15.15v17.7A11.16,11.16,0,0,0,15.15,44h17.7A11.16,11.16,0,0,0,44,32.85V15.15A11.16,11.16,0,0,0,32.85,4Z"/><polygon class="cls-2" points="22.45 22.45 18.91 25.98 20.33 27.4 23.86 23.86 27.4 27.4 28.81 25.98 25.28 22.45 23.86 21.03 22.45 22.45"/></svg>