<svg id="Layer_1" data-name="Layer 1" xmlns="http://www.w3.org/2000/svg" viewBox="0 0 50 50"><title>Bathroom-hover</title><path d="M34.6,21.52a.62.62,0,0,1-.53.69c-.38,0-.67-.34-.69-.85a.6.6,0,0,1,.58-.65C34.31,20.71,34.57,21,34.6,21.52Z"/><path d="M28.55,21.44c0,.43-.31.8-.63.79a.64.64,0,0,1-.58-.7c0-.42.34-.85.63-.84A.64.64,0,0,1,28.55,21.44Z"/><path d="M33.48,19.9a.82.82,0,0,1-.7-.87.58.58,0,0,1,.58-.57c.3,0,.71.49.72.84A.6.6,0,0,1,33.48,19.9Z"/><path d="M31.55,21.52c0,.4-.23.69-.53.69s-.62-.29-.62-.8.22-.7.57-.69S31.55,21,31.55,21.52Z"/><path d="M29.15,19.06a.81.81,0,0,1-.67.84.58.58,0,0,1-.61-.58.93.93,0,0,1,.71-.83A.54.54,0,0,1,29.15,19.06Z"/><path d="M31.55,19.19c0,.43-.23.7-.58.7s-.57-.28-.57-.71.2-.69.58-.68S31.55,18.74,31.55,19.19Z"/><path d="M14.29,41.54a2.21,2.21,0,0,1-2.23-2,2.18,2.18,0,0,1,1.68-2.41,7.64,7.64,0,0,1-1-.6,7,7,0,0,1-3.11-6.07c0-.62,0-.77,0-1v-.1A2.51,2.51,0,0,1,9.15,29a3,3,0,0,1-.69-2.18,3,3,0,0,1,.67-2.15,2.83,2.83,0,0,1,1-.55l.12,0A1.62,1.62,0,0,1,11,24H35.9V22.64c0-2.74,0-5.84,0-8.21a3.78,3.78,0,0,0-.3-1.15.44.44,0,0,0-.41-.31,5.66,5.66,0,0,0-1.25,0,.5.5,0,0,0-.17,0,4.54,4.54,0,0,1,1.81,3.53,1,1,0,0,1-1,1.1H27.39a1,1,0,0,1-1-1.21c0-.09,0-.17,0-.26a5,5,0,0,1,.14-.74,4.51,4.51,0,0,1,2.52-2.93,5.77,5.77,0,0,1,11.19.78,8.3,8.3,0,0,1,.09,1.22c0,2.27,0,5.28,0,7.88v1.93c.92.49,1.19,1.09,1.19,2.38v.42a2.22,2.22,0,0,1-1.19,2.26v.1c0,.32,0,.51,0,1.19a7,7,0,0,1-3.5,6.23,5.4,5.4,0,0,1-.51.29,2.22,2.22,0,0,1-.68,4.36,4.14,4.14,0,0,1-3.41-1.89,8.57,8.57,0,0,1-.8-1.69H18.62a5.19,5.19,0,0,1-1.9,2.77,4,4,0,0,1-2.42.82Zm-3.66-14,.23.12.35.18a1,1,0,0,1,.54.91c0,.35,0,.55,0,.71s0,.46,0,1.13A5,5,0,0,0,14,34.9a8.28,8.28,0,0,0,1.17.67l.69.36A1,1,0,0,1,16.39,37a2.29,2.29,0,0,1-2.12,2.19c-.14,0-.16.07-.14.19s.07.09.16.09h0A2,2,0,0,0,15.48,39a3.24,3.24,0,0,0,1.22-2,1.4,1.4,0,0,1,1.44-1.17H31.88a1.4,1.4,0,0,1,1.38,1l.13.34a6.93,6.93,0,0,0,.6,1.3,2,2,0,0,0,1.74,1,.12.12,0,0,0,.16-.11c0-.1,0-.15-.17-.18a2.28,2.28,0,0,1-2.08-2.4,1,1,0,0,1,.6-.93l.56-.24a6.27,6.27,0,0,0,.93-.45,5,5,0,0,0,2.55-4.47c0-.69,0-.89,0-1.22v-.81a1,1,0,0,1,.75-1,1.94,1.94,0,0,0,.4-.15,1.89,1.89,0,0,0,0-.4v-.41a4,4,0,0,0,0-.52,4,4,0,0,0-.49-.21,1,1,0,0,1-.67-1V22.38c0-2.6,0-5.61,0-7.88a6.24,6.24,0,0,0-.07-.92,3.54,3.54,0,0,0-3.39-3A3.48,3.48,0,0,0,31,13.2a1.64,1.64,0,0,1-1,1.15,2.45,2.45,0,0,0-1.31,1.21h4.53a2.78,2.78,0,0,0-1.36-1.27A1,1,0,0,1,31.36,13a2.77,2.77,0,0,1,2.31-2.12,7.71,7.71,0,0,1,1.71,0,2.52,2.52,0,0,1,2.15,1.65A5.53,5.53,0,0,1,38,14.4c0,2.38,0,5.49,0,8.24v2.06a2.72,2.72,0,0,1,0,.35v.1a1,1,0,0,1-1,.93H10.85l-.24.09A3.17,3.17,0,0,0,10.62,27.51Zm0,.07ZM11,26h0Z"/></svg>