<svg id="Layer_1" data-name="Layer 1" xmlns="http://www.w3.org/2000/svg" viewBox="0 0 50 50"><defs><style>.cls-1{fill:#282828;}</style></defs><title>Building</title><path class="cls-1" d="M36.78,11.09h2.77c.36,0,.42.08.42.48q0,3.65,0,7.29c0,.39,0,.44-.39.44H33.9c-.33,0-.37-.05-.37-.43q0-1.84,0-3.68t0-3.71c0-.35.05-.41.37-.41h2.89m-23.6,0h2.9c.29,0,.35.07.35.4q0,1.85,0,3.71t0,3.71c0,.36,0,.41-.36.41H10.43c-.32,0-.4-.09-.4-.45q0-3.68,0-7.35c0-.34.06-.41.36-.41h2.79m11.84,0h6.71c.34,0,.39.06.39.44q0,3.68,0,7.36c0,.36-.06.42-.38.42H18.32c-.39,0-.44,0-.44-.48q0-3.63,0-7.27c0-.41.05-.47.42-.47H25m7.53,9.81h7c.37,0,.42.06.42.47q0,3.63,0,7.26c0,.44,0,.46-.42.46H26.1c-.35,0-.39,0-.39-.43q0-3.66,0-7.32c0-.4,0-.44.39-.44h6.46m-14.89,0h6.23c.38,0,.41,0,.41.48q0,3.62,0,7.23c0,.46,0,.49-.42.49H10.47c-.39,0-.44-.06-.44-.51q0-3.62,0-7.23c0-.42,0-.45.4-.45h7.23m19.12,9.79h2.77c.35,0,.42.08.42.49q0,3.63,0,7.26c0,.42,0,.47-.42.47H33.94c-.39,0-.42,0-.42-.46q0-1.82,0-3.65t0-3.68c0-.37,0-.43.37-.43h2.89m-23.44,0H16c.38,0,.41,0,.41.48q0,1.82,0,3.65t0,3.68c0,.37,0,.42-.38.42H10.41c-.34,0-.39-.06-.39-.44q0-3.66,0-7.32c0-.4,0-.45.41-.45h2.92m11.34,0h7c.33,0,.39.07.39.44q0,3.66,0,7.32c0,.39-.05.45-.41.45H18.32c-.38,0-.44-.07-.44-.49q0-3.63,0-7.26c0-.4.05-.46.4-.46h6.4M36.78,9H33.89a2.69,2.69,0,0,0-1.07.21A2.79,2.79,0,0,0,31.72,9H18.31a2.81,2.81,0,0,0-1.13.22A2.66,2.66,0,0,0,16.08,9h-5.7a2.34,2.34,0,0,0-2.44,2.5q0,3.68,0,7.35a2.76,2.76,0,0,0,.26,1.21,2.91,2.91,0,0,0-.26,1.28v7.23a3,3,0,0,0,.26,1.3,2.87,2.87,0,0,0-.26,1.25v7.32A2.34,2.34,0,0,0,10.41,41h5.64a2.75,2.75,0,0,0,1.13-.22,2.81,2.81,0,0,0,1.14.22H31.71a2.81,2.81,0,0,0,1.11-.21,2.88,2.88,0,0,0,1.13.21h5.61a2.34,2.34,0,0,0,2.5-2.55V31.18a2.92,2.92,0,0,0-.26-1.27,2.94,2.94,0,0,0,.26-1.27V21.37a2.9,2.9,0,0,0-.26-1.26,2.87,2.87,0,0,0,.26-1.25V11.58A2.37,2.37,0,0,0,39.56,9Z"/></svg>