<svg id="Layer_1" data-name="Layer 1" xmlns="http://www.w3.org/2000/svg" viewBox="0 0 30 30"><defs><style>.cls-1{fill:#f2f2f2;}.cls-2{fill:#b9b9b9;}.cls-3{fill:#666;}</style></defs><title>close-hover</title><circle id="Background" class="cls-1" cx="15" cy="15" r="15" transform="translate(-6.21 15) rotate(-45)"/><path id="Background-2" data-name="Background" class="cls-2" d="M15,1a14,14,0,0,1,9.9,23.9A14,14,0,0,1,5.1,5.1,13.91,13.91,0,0,1,15,1m0-1A15,15,0,1,0,25.61,4.39,15,15,0,0,0,15,0Z"/><polygon class="cls-3" points="19.94 11.48 18.53 10.07 14.99 13.61 11.46 10.07 10.04 11.48 13.58 15.02 10.04 18.55 11.46 19.97 14.99 16.43 18.53 19.97 19.94 18.55 16.41 15.02 19.94 11.48"/></svg>