<svg id="Layer_1" data-name="Layer 1" xmlns="http://www.w3.org/2000/svg" viewBox="0 0 42 42"><defs><style>.cls-1{fill:#a30517;}</style></defs><title>dangerous-product</title><path d="M9.94,24.37h3.19V16.69H10.32V14.21a14.9,14.9,0,0,0,2.15-.59,9,9,0,0,0,1.73-.87h2.95V24.37h2.67v3.23H9.94Z"/><path d="M22,23.81a3.2,3.2,0,0,1,.69-2.13,5.85,5.85,0,0,1,1.74-1.38v-.09A6,6,0,0,1,23,18.7a3.6,3.6,0,0,1-.54-2,4.16,4.16,0,0,1,.36-1.77,3.65,3.65,0,0,1,1-1.32,4.87,4.87,0,0,1,1.57-.83,6.47,6.47,0,0,1,2-.29,5.8,5.8,0,0,1,1.88.29,4.38,4.38,0,0,1,1.46.82,3.62,3.62,0,0,1,.95,1.3,4.21,4.21,0,0,1,.34,1.71,3.08,3.08,0,0,1-.55,1.81,4.84,4.84,0,0,1-1.35,1.3v.09A5.68,5.68,0,0,1,32,21.32a3.77,3.77,0,0,1,.73,2.4,3.58,3.58,0,0,1-.39,1.65,4,4,0,0,1-1.1,1.32,5.34,5.34,0,0,1-1.72.88,7.41,7.41,0,0,1-2.22.32,7.23,7.23,0,0,1-2.1-.29,5.3,5.3,0,0,1-1.69-.83,3.87,3.87,0,0,1-1.11-1.29A3.48,3.48,0,0,1,22,23.81Zm3.44-.47a1.57,1.57,0,0,0,.59,1.33,2.18,2.18,0,0,0,1.36.44,1.86,1.86,0,0,0,1.15-.35A1.4,1.4,0,0,0,29,23.58a1.31,1.31,0,0,0-.19-.7,1.86,1.86,0,0,0-.55-.55,6,6,0,0,0-.88-.48l-1.17-.51a3.71,3.71,0,0,0-.55.92A2.77,2.77,0,0,0,25.47,23.34Zm2.74-4.59a3.25,3.25,0,0,0,.66-1.87,1.71,1.71,0,0,0-.4-1.21,1.42,1.42,0,0,0-1.1-.43,1.44,1.44,0,0,0-.95.34A1.37,1.37,0,0,0,26,16.69a1.43,1.43,0,0,0,.57,1.19A6.86,6.86,0,0,0,28.21,18.75Z"/><path class="cls-1" d="M36.46,8.31l.07-.07L33.77,5.48l-.07.07A20,20,0,0,0,5.55,33.7l-.06.06L6.71,35l.3.31,1.23,1.23.06-.06A20,20,0,0,0,36.46,8.31ZM4.9,21a16.08,16.08,0,0,1,26-12.67L8.33,30.92A16,16,0,0,1,4.9,21ZM21,37.1a16,16,0,0,1-9.91-3.42L33.67,11.09A16.08,16.08,0,0,1,21,37.1Z"/></svg>