<svg id="Layer_1" data-name="Layer 1" xmlns="http://www.w3.org/2000/svg" viewBox="0 0 50 50"><title>Decorating-hover</title><path d="M42,20.34,29.68,8a1,1,0,0,0-1.45,0l-.09.09-.22.21-7.64,7.65q-2.14,2.15-4.3,4.29a1.79,1.79,0,0,0-.41,2.22,3.18,3.18,0,0,1,.14.36l.05.14A17.36,17.36,0,0,1,16.92,27a.64.64,0,0,1-.27.7,10.79,10.79,0,0,1-3.09,1.67,8.37,8.37,0,0,0-4,3.27,9.36,9.36,0,0,0-1.84,5.53,4,4,0,0,0,3.36,4,6.64,6.64,0,0,0,1.09.09,5.35,5.35,0,0,0,1.15-.12,10.13,10.13,0,0,0,7.4-5.71c.32-.69.69-1.38,1-2l.57-1.07c.16-.32.34-.46.87-.38l.16,0h.1a15.79,15.79,0,0,1,3.85,1.27A1.9,1.9,0,0,0,30,33.79l.61-.61L40.91,22.83c.23-.23.47-.44.71-.66l.36-.33a1,1,0,0,0,0-1.5ZM25.4,16.54c.49-.17,1-.39,1.41-.59l.46-.21.75-.36a8.24,8.24,0,0,1,1.36-.57,1,1,0,0,1,.92.07.92.92,0,0,1,.11.83,12,12,0,0,1-.5,1.54c-.09.24-.18.49-.26.73s-.09.25-.14.37a5.85,5.85,0,0,0-.32,1,1.91,1.91,0,0,0,.45,1.75,2,2,0,0,0,1.78.52c.31-.05.61-.12.92-.19s.54-.12.81-.17a1.26,1.26,0,0,1,1.11.27,1.12,1.12,0,0,1,.3,1,11.92,11.92,0,0,1-.25,1.28l-.12.55a1.57,1.57,0,0,0,.39,1.6l.2.14L32.83,28a1,1,0,0,0-.17-.24L22.27,17.34a1,1,0,0,0-.27-.19L23.17,16A1.94,1.94,0,0,0,25.4,16.54Zm3.69,15.17-.61.61-.15.15-.22-.1a17.67,17.67,0,0,0-4.36-1.43l-.17,0h-.09a2.72,2.72,0,0,0-3,1.48l-.55,1c-.37.69-.75,1.41-1.1,2.14a8.05,8.05,0,0,1-6,4.56,3.88,3.88,0,0,1-1.45,0,1.93,1.93,0,0,1-1.62-2,7.4,7.4,0,0,1,1.49-4.33,6.25,6.25,0,0,1,3.05-2.48,12.93,12.93,0,0,0,3.66-2,2.71,2.71,0,0,0,1-2.56,19.31,19.31,0,0,0-1.27-4.57l0-.12c0-.13-.1-.28-.17-.44l3.11-3.1a1,1,0,0,0,.19.27L31.18,29.2a1,1,0,0,0,.24.18ZM39.44,21.36l-1.77,1.77a1,1,0,0,0-.36.19,3.69,3.69,0,0,1-.89.49,10.87,10.87,0,0,0,.2-1.1A3.19,3.19,0,0,0,35.69,20a3.34,3.34,0,0,0-2.88-.82c-.31.05-.62.12-.93.19l-.57.12c0-.12.09-.24.14-.37s.12-.31.17-.46.16-.46.25-.68a13.72,13.72,0,0,0,.58-1.82,2.88,2.88,0,0,0-.71-2.79,3,3,0,0,0-2.9-.56,9.9,9.9,0,0,0-1.72.71l-.67.32-.49.22c-.34.16-.66.3-1,.43a2.92,2.92,0,0,1,.37-.48,1,1,0,0,0,.26-.45l3.34-3.35L39.77,21Z"/><path d="M13.26,35.48a1.28,1.28,0,1,0,1.26,1.29A1.28,1.28,0,0,0,13.26,35.48Z"/></svg>