<svg id="Layer_1" data-name="Layer 1" xmlns="http://www.w3.org/2000/svg" viewBox="0 0 38 28"><defs><style>.cls-1{fill:#282828;}</style></defs><title>delivery</title><path class="cls-1" d="M14.52,23.92c-.7,2.37-2.21,3.65-4.29,3.68s-3.6-1.15-4.46-3.66H3.09A2.17,2.17,0,0,1,.64,21.52c0-6.28,0-12.56,0-18.84A2.23,2.23,0,0,1,2.93.4c3.66,0,7.33,0,11,0H21a2.19,2.19,0,0,1,2.35,2.36q0,10.33,0,20.66v.5Zm3.75-13.43a6.64,6.64,0,1,0-6.39,6.86A6.68,6.68,0,0,0,18.26,10.49ZM7.19,23.22a3,3,0,1,0,3-3A3,3,0,0,0,7.19,23.22Z"/><path class="cls-1" d="M24.92,5.57h.55c1.39,0,2.78,0,4.17,0a3.73,3.73,0,0,1,2.79,1.11,8.48,8.48,0,0,1,.88,1q1.39,1.84,2.75,3.69a6.24,6.24,0,0,1,1.31,4c-.05,2,0,4.09,0,6.13a2.28,2.28,0,0,1-2.5,2.49c-.37,0-.52.1-.62.47a4.39,4.39,0,0,1-8.47-.07l-.11-.39h-.74ZM35.83,14.4l.15-.16a18.49,18.49,0,0,0-1.06-2C34,11,33.08,9.75,32.16,8.5A3.23,3.23,0,0,0,29,7c-.41,0-.52.15-.51.54,0,1.93,0,3.85,0,5.78,0,.8.3,1.1,1.09,1.1h6.21ZM33,23.27a3,3,0,1,0-3,2.9A3,3,0,0,0,33,23.27Z"/><path class="cls-1" d="M9.12,13.47l-.86-1.15c.74-.56,1.45-1.12,2.19-1.64a1,1,0,0,0,.47-.93c0-1,0-1.93,0-2.89,0-.17,0-.35,0-.55h1.4c0,.66,0,1.29,0,1.92,0,.82,0,1.63,0,2.45a.78.78,0,0,1-.23.54C11.13,12,10.15,12.7,9.12,13.47Z"/></svg>