<svg id="Layer_1" data-name="Layer 1" xmlns="http://www.w3.org/2000/svg" viewBox="0 0 50 50"><defs><style>.cls-1{fill:#282828;}</style></defs><title>Doors-joinery</title><path class="cls-1" d="M26.4,41.54a18.39,18.39,0,0,1-3.61-.39c-2.22-.44-4.4-.85-6.71-1.27l-2.82-.53a1,1,0,0,1-.85-.95v-.12c0-.15,0-.32,0-.49V31.64q0-9.45,0-18.91A1.61,1.61,0,0,1,13.72,11l3.47-.81c2.35-.55,4.77-1.13,7.18-1.64a8.56,8.56,0,0,1,2.26-.08c.3,0,.61,0,.91,0a1,1,0,0,1,1,1V40.45a1,1,0,0,1-.95,1C27.22,41.52,26.81,41.54,26.4,41.54Zm1.13-1.09h0Zm-13.08-3,2,.37c2.21.41,4.5.83,6.74,1.28a16.62,16.62,0,0,0,3.3.35V10.57a6.81,6.81,0,0,0-1.69,0c-2.38.51-4.8,1.08-7.13,1.63L14.44,13c0,6.24,0,12.44,0,18.64Z"/><path class="cls-1" d="M36.6,38.91H30.24a1,1,0,0,1,0-2.08h5.32V13.13H30.26a1,1,0,0,1,0-2.08H36.6a1,1,0,0,1,1,1V37.87A1,1,0,0,1,36.6,38.91Z"/><path class="cls-1" d="M22.88,27.29a1.71,1.71,0,0,1-1.21-.51A2.52,2.52,0,0,1,21,25a2.48,2.48,0,0,1,.71-1.8A1.69,1.69,0,0,1,23,22.69,2.08,2.08,0,0,1,24.74,25a2.08,2.08,0,0,1-1.84,2.28Z"/></svg>