<svg id="Layer_1" data-name="Layer 1" xmlns="http://www.w3.org/2000/svg" viewBox="0 0 50 50"><defs><style>.cls-1{fill:#282828;}</style></defs><title>Electrical</title><path class="cls-1" d="M26.07,23.85H23.93a.78.78,0,0,1-.78-.78V18.29a.78.78,0,0,1,.78-.78h2.14a.78.78,0,0,1,.78.78v4.78a.78.78,0,0,1-.78.78"/><path class="cls-1" d="M21.46,32.49H16.65a.76.76,0,0,1-.76-.76V30a.76.76,0,0,1,.76-.76h4.81a.76.76,0,0,1,.76.76v1.75a.76.76,0,0,1-.76.76"/><path class="cls-1" d="M33.34,32.49h-4.8a.77.77,0,0,1-.77-.77V30a.77.77,0,0,1,.77-.77h4.8a.77.77,0,0,1,.77.77v1.73a.77.77,0,0,1-.77.77"/><path class="cls-1" d="M37.72,40.06H12.28a2.58,2.58,0,0,1-2.57-2.57v-25a2.58,2.58,0,0,1,2.57-2.57H37.72a2.58,2.58,0,0,1,2.57,2.57v25A2.58,2.58,0,0,1,37.72,40.06ZM12.28,12a.49.49,0,0,0-.49.49v25a.49.49,0,0,0,.49.49H37.72a.49.49,0,0,0,.49-.49v-25a.49.49,0,0,0-.49-.49Z"/></svg>