<svg id="Layer_1" data-name="Layer 1" xmlns="http://www.w3.org/2000/svg" viewBox="0 0 36 36"><defs><style>.cls-1{fill:#282828;}</style></defs><title>enlarge-image</title><polygon class="cls-1" points="22.56 14.83 17.56 14.83 17.56 9.83 15.56 9.83 15.56 14.83 10.56 14.83 10.56 16.83 15.56 16.83 15.56 21.83 17.56 21.83 17.56 16.83 22.56 16.83 22.56 14.83"/><path class="cls-1" d="M33.87,31.8l-6-6.08a14.94,14.94,0,1,0-3,2.62l6.24,6.28a1.93,1.93,0,0,0,2.74,0l.06-.06A2,2,0,0,0,33.87,31.8ZM7.38,25A13,13,0,0,1,25.76,6.62,13,13,0,1,1,7.38,25Z"/></svg>