<svg id="Layer_1" data-name="Layer 1" xmlns="http://www.w3.org/2000/svg" viewBox="0 0 52 52"><defs><style>.cls-1{fill:#fff;}.cls-2{fill:#3b579d;}</style></defs><title>facebook-hover</title><circle id="Background" class="cls-1" cx="26" cy="26" r="25"/><path id="Background-2" data-name="Background" class="cls-2" d="M26,5A21,21,0,1,1,5,26,21,21,0,0,1,26,5m0-4A25,25,0,1,0,51,26,25,25,0,0,0,26,1Z"/><path class="cls-2" d="M33.36,12v4.5H30.69a2.5,2.5,0,0,0-2,.61A2.82,2.82,0,0,0,28.2,19V22.2h5l-.66,5H28.2V40.18H23V27.24H18.64v-5H23V18.48a6.59,6.59,0,0,1,1.77-4.92,6.43,6.43,0,0,1,4.72-1.75A28.26,28.26,0,0,1,33.36,12Z"/></svg>