<svg id="Layer_1" data-name="Layer 1" xmlns="http://www.w3.org/2000/svg" viewBox="0 0 50 50"><defs><style>.cls-1{fill:#282828;}</style></defs><title>Flooring</title><path class="cls-1" d="M41.54,31.21a1,1,0,0,0-.32-.74L33.73,13.75a1,1,0,0,0-.95-.62H17.24a1,1,0,0,0-.95.61l-7.74,17h0a1,1,0,0,0-.05.16v0a1,1,0,0,0,0,.22v4.62a1,1,0,0,0,1,1h31a1,1,0,0,0,1-1V31.39s0-.06,0-.09S41.54,31.24,41.54,31.21Zm-2.73-1H31l-2.14-15h3.26Zm-12.06-15,2.14,15h-7.8l2.38-15Zm2.3,17v2.54H20.94V32.25Zm-11.14-17h3.45L19,30.17H11.12Zm-7.37,17h8.32v2.54H10.54Zm20.6,2.54V32.25h8.32v2.54Z"/></svg>