<svg id="Layer_1" data-name="Layer 1" xmlns="http://www.w3.org/2000/svg" viewBox="0 0 50 50"><defs><style>.cls-1{fill:#282828;}</style></defs><title>Heating</title><path class="cls-1" d="M16.44,39.79l0,0h0a1.2,1.2,0,0,0,.52.12h.15a1.28,1.28,0,0,0,.42-.13,1.25,1.25,0,0,0,.67-1.24q0-4.89,0-9.78c0-.84,0-16.67,0-17.51a1.27,1.27,0,0,0-.28-.79l0-.09a1.77,1.77,0,0,0-.3-.19l0,0h0a1.2,1.2,0,0,0-.52-.12H17a1.28,1.28,0,0,0-.42.13,1.25,1.25,0,0,0-.67,1.24c0,3.26,0,21.52,0,24.78,0,.84,0,1.67,0,2.51a1.27,1.27,0,0,0,.28.79l0,.09A1.78,1.78,0,0,0,16.44,39.79Z"/><path class="cls-1" d="M22.44,39.79l0,0h0a1.2,1.2,0,0,0,.52.12h.15a1.28,1.28,0,0,0,.42-.13,1.25,1.25,0,0,0,.67-1.24q0-4.89,0-9.78c0-.84,0-16.67,0-17.51a1.27,1.27,0,0,0-.28-.79l0-.09a1.77,1.77,0,0,0-.3-.19l0,0h0a1.2,1.2,0,0,0-.52-.12H23a1.28,1.28,0,0,0-.42.13,1.25,1.25,0,0,0-.67,1.24c0,3.26,0,21.52,0,24.78,0,.84,0,1.67,0,2.51a1.27,1.27,0,0,0,.28.79l0,.09A1.78,1.78,0,0,0,22.44,39.79Z"/><path class="cls-1" d="M28.44,39.79l0,0h0a1.2,1.2,0,0,0,.52.12h.15a1.28,1.28,0,0,0,.42-.13,1.25,1.25,0,0,0,.67-1.24q0-4.89,0-9.78c0-.84,0-16.67,0-17.51a1.27,1.27,0,0,0-.28-.79l0-.09a1.77,1.77,0,0,0-.3-.19l0,0h0a1.2,1.2,0,0,0-.52-.12H29a1.28,1.28,0,0,0-.42.13,1.25,1.25,0,0,0-.67,1.24c0,3.26,0,21.52,0,24.78,0,.84,0,1.67,0,2.51a1.27,1.27,0,0,0,.28.79l0,.09A1.78,1.78,0,0,0,28.44,39.79Z"/><path class="cls-1" d="M34.44,39.79l0,0h0a1.2,1.2,0,0,0,.52.12h.15a1.28,1.28,0,0,0,.42-.13,1.25,1.25,0,0,0,.67-1.24q0-4.89,0-9.78c0-.84,0-16.67,0-17.51a1.27,1.27,0,0,0-.28-.79l0-.09a1.77,1.77,0,0,0-.3-.19l0,0h0a1.2,1.2,0,0,0-.52-.12H35a1.28,1.28,0,0,0-.42.13,1.25,1.25,0,0,0-.67,1.24c0,3.26,0,21.52,0,24.78,0,.84,0,1.67,0,2.51a1.27,1.27,0,0,0,.28.79l0,.09A1.78,1.78,0,0,0,34.44,39.79Z"/><path class="cls-1" d="M40.44,39.79l0,0h0a1.2,1.2,0,0,0,.52.12h.15a1.28,1.28,0,0,0,.42-.13,1.25,1.25,0,0,0,.67-1.24q0-4.89,0-9.78c0-.84,0-16.67,0-17.51a1.27,1.27,0,0,0-.28-.79l0-.09a1.77,1.77,0,0,0-.3-.19l0,0h0a1.2,1.2,0,0,0-.52-.12H41a1.28,1.28,0,0,0-.42.13,1.25,1.25,0,0,0-.67,1.24c0,3.26,0,21.52,0,24.78,0,.84,0,1.67,0,2.51a1.27,1.27,0,0,0,.28.79l0,.09A1.78,1.78,0,0,0,40.44,39.79Z"/><polygon class="cls-1" points="13.67 17.07 7.67 15.57 7.67 13.32 13.67 11.82 13.67 17.07"/></svg>