<svg id="Layer_1" data-name="Layer 1" xmlns="http://www.w3.org/2000/svg" viewBox="0 0 50 50"><title>Home-hover</title><path d="M25,13.88l6.77,6.77q4.58,4.58,9.17,9.16a1.15,1.15,0,0,1,.38.9c0,2.44,0,4.87,0,7.31a4.48,4.48,0,0,1-4.81,4.78H13.23a4.43,4.43,0,0,1-4.45-3.47,5.6,5.6,0,0,1-.12-1.22c0-2.49,0-5,0-7.46a1.12,1.12,0,0,1,.28-.72Q16.84,22,24.76,14.08Zm4.45,20c0-1.42,0-2.85,0-4.27a1.5,1.5,0,0,0-1.68-1.68H22.2a1.49,1.49,0,0,0-1.68,1.68q0,4.27,0,8.54a1.5,1.5,0,0,0,1.68,1.68h5.56a1.5,1.5,0,0,0,1.69-1.68C29.44,36.74,29.44,35.32,29.44,33.89Z"/><path d="M24.86,11a4.21,4.21,0,0,1-.41.59L8.84,27.21a1.76,1.76,0,0,1-1.27.68,1.45,1.45,0,0,1-1.2-2.28,3.82,3.82,0,0,1,.45-.5L23.71,8.17a1.57,1.57,0,0,1,2.54,0l7.14,7.13.5.47c0-.28,0-.46,0-.63,0-2.06,0-4.12,0-6.18,0-1.22.54-1.75,1.76-1.77.36,0,.72,0,1.08,0a1.5,1.5,0,0,1,1.58,1.65c0,2.75,0,5.49,0,8.24,0,.93,0,1.85,0,2.78a1.15,1.15,0,0,0,.29.71c1.57,1.61,3.17,3.19,4.75,4.79a1.44,1.44,0,0,1,.15,2.07,1.37,1.37,0,0,1-2.12.06c-.77-.73-1.51-1.5-2.26-2.25L25.35,11.46Z"/></svg>