<svg id="Layer_1" data-name="Layer 1" xmlns="http://www.w3.org/2000/svg" viewBox="0 0 22 22"><defs><style>.cls-1{fill:#0e56b7;}.cls-2{fill:#fff;}</style></defs><title>info-hover</title><circle id="Background" class="cls-1" cx="11" cy="11" r="10"/><path class="cls-2" d="M11,7.48a1.35,1.35,0,0,1-.94-.33,1.09,1.09,0,0,1-.37-.85,1.07,1.07,0,0,1,.37-.85A1.37,1.37,0,0,1,11,5.13a1.36,1.36,0,0,1,.95.32,1.08,1.08,0,0,1,.36.85,1.11,1.11,0,0,1-.36.85A1.35,1.35,0,0,1,11,7.48ZM9.88,8.6h2.26v7.63H9.88Z"/></svg>