<svg id="Layer_1" data-name="Layer 1" xmlns="http://www.w3.org/2000/svg" viewBox="0 0 52 52"><defs><style>.cls-1{fill:#d93175;}.cls-2{fill:#fff;}</style></defs><title>instagram</title><circle id="Background" class="cls-1" cx="26" cy="26" r="25"/><path class="cls-2" d="M31.68,40H20.32a7.92,7.92,0,0,1-7.9-7.9V19.95a7.92,7.92,0,0,1,7.9-7.9H31.68a7.92,7.92,0,0,1,7.9,7.9v12.1A7.92,7.92,0,0,1,31.68,40Zm0-2.09a5.84,5.84,0,0,0,5.81-5.81V19.95a5.84,5.84,0,0,0-5.81-5.81H20.32a5.84,5.84,0,0,0-5.81,5.81v12.1a5.84,5.84,0,0,0,5.81,5.81Z"/><path class="cls-2" d="M33.52,25.89A7.48,7.48,0,1,1,26,18.41,7.48,7.48,0,0,1,33.52,25.89ZM26,21a4.9,4.9,0,1,0,4.9,4.9A4.9,4.9,0,0,0,26,21Z"/><circle class="cls-2" cx="33.64" cy="18.3" r="1.77"/></svg>