<svg id="Layer_1" data-name="Layer 1" xmlns="http://www.w3.org/2000/svg" viewBox="0 0 52 52"><defs><style>.cls-1{fill:#0079b0;}.cls-2{fill:#fff;}</style></defs><title>linkedin</title><circle id="Background" class="cls-1" cx="26" cy="26" r="25"/><path class="cls-2" d="M19.27,16.49a2.67,2.67,0,0,1-.85,2.06,3.19,3.19,0,0,1-2.29.83h0a3,3,0,0,1-2.23-.83A2.77,2.77,0,0,1,13,16.49a2.72,2.72,0,0,1,.87-2.07,3.18,3.18,0,0,1,2.27-.82,3.09,3.09,0,0,1,2.25.82A2.81,2.81,0,0,1,19.27,16.49Zm-.35,5.17V38.4H13.34V21.66ZM39,28.8v9.6H33.42v-9a4.89,4.89,0,0,0-.68-2.78,2.4,2.4,0,0,0-2.14-1,2.73,2.73,0,0,0-1.78.58,3.6,3.6,0,0,0-1.07,1.44,4.09,4.09,0,0,0-.19,1.37V38.4H22q0-6.74,0-10.93t0-5l0-.81h5.56v2.43h0a7.32,7.32,0,0,1,.69-.95,7.2,7.2,0,0,1,1-.88,4.39,4.39,0,0,1,1.47-.74,6.71,6.71,0,0,1,1.93-.26,6,6,0,0,1,4.65,1.92A8,8,0,0,1,39,28.8Z"/></svg>