<svg id="Layer_1" data-name="Layer 1" xmlns="http://www.w3.org/2000/svg" viewBox="0 0 22 32"><defs><style>.cls-1{fill:#282828;}</style></defs><title>locate-store-pin</title><path class="cls-1" d="M21.44,9.83A10.51,10.51,0,0,0,11,.5C10.23.6,9.45.64,8.7.81A10.31,10.31,0,0,0,.5,11a20,20,0,0,0,2,7.87,50.72,50.72,0,0,0,8,12.27.66.66,0,0,0,1.16-.06c1.36-1.78,2.76-3.52,4-5.36a37.14,37.14,0,0,0,4.94-9.64A15.31,15.31,0,0,0,21.44,9.83ZM4.81,17.2a8.45,8.45,0,0,1,0-12.11,8.87,8.87,0,0,1,12.37,0,8.45,8.45,0,0,1,0,12.11A8.87,8.87,0,0,1,4.81,17.2Z"/></svg>