<svg id="Layer_1" data-name="Layer 1" xmlns="http://www.w3.org/2000/svg" viewBox="0 0 30 28"><title>panel-close</title><path d="M15,27A13,13,0,1,1,28,14,13,13,0,0,1,15,27ZM15,2A12,12,0,1,0,27,14,12,12,0,0,0,15,2Z"/><polygon points="17.1 15.44 15.66 14 15.66 14 16.76 12.9 17.1 12.56 18.86 10.8 18.2 10.14 16.48 11.86 16.44 11.9 15 13.34 15 13.34 13.9 12.24 13.56 11.9 11.8 10.14 11.14 10.8 12.86 12.52 12.9 12.56 14.34 14 13.24 15.1 12.9 15.44 11.14 17.2 11.8 17.86 13.52 16.14 13.56 16.1 15 14.66 16.1 15.76 16.44 16.1 18.2 17.86 18.86 17.2 17.14 15.48 17.1 15.44"/></svg>