<svg id="Layer_1" data-name="Layer 1" xmlns="http://www.w3.org/2000/svg" viewBox="0 0 50 50"><title>Plastering-hover</title><path d="M41.36,12.78l0-2.81c0-.08,0-.15,0-.22V9.68a1.07,1.07,0,0,0-.92-1l-.21,0L39,8.66,26.82,8.46h0a1.58,1.58,0,0,0-1.08.47L11.42,23.21l-1,1-.17.19-.06.06a1,1,0,0,0,0,1.43l3.42,3.42-.76.76L9.39,33.57a2.94,2.94,0,0,0,0,4.29l2.74,2.74,0,0a3.07,3.07,0,0,0,.41.36,3,3,0,0,0,1.72.56,3,3,0,0,0,2.15-.92l3.26-3.26,1-1,3.42,3.42a1.07,1.07,0,0,0,1.49,0L28,37.35,41.06,24.3a1.58,1.58,0,0,0,.48-1.19Q41.45,17.94,41.36,12.78Zm-18.11,9.9a1,1,0,0,0,.15-.19l1.38-1.38,3.17-3.17a.86.86,0,0,1,1.2-.14,1.07,1.07,0,0,1,.14.13L32,20.68A.86.86,0,0,1,32,22l-3.45,3.45L27.08,27h0l-7.43,7.43-.08.1-1.33,1.34-3.29,3.29a.86.86,0,0,1-1.2.14,1.09,1.09,0,0,1-.14-.13l-.92-.92-1.82-1.82a.86.86,0,0,1,0-1.35l3.33-3.33,1.62-1.61h0Zm3.28,13.2L24.8,37.61l-2.7-2.7,6.45-6.45h0L30,27,33.5,23.5a2.94,2.94,0,0,0,0-4.29l-2.75-2.75a3.05,3.05,0,0,0-.41-.36,2.94,2.94,0,0,0-3.86.37L23.3,19.64l-1.55,1.55a1,1,0,0,0-.15.19L15.08,27.9l-2.71-2.7.51-.51L27,10.54l11.88.2h.33l0,2.07q.09,5.07.18,10.13Z"/><path d="M13.5,35.27a.86.86,0,1,0,1.22,1.22.86.86,0,0,0-1.22-1.22Z"/></svg>