<svg id="Layer_1" data-name="Layer 1" xmlns="http://www.w3.org/2000/svg" viewBox="0 0 50 50"><defs><style>.cls-1{fill:#282828;}</style></defs><title>Plumbing</title><path class="cls-1" d="M40.91,28.69c0-.48,0-1,0-1.46,0-1.25,0-2.53-.09-3.81a9.06,9.06,0,0,0-8.49-8.09c-1.49-.06-3,0-4.46,0H26.26a1.65,1.65,0,0,0-1.3-.61,1.75,1.75,0,0,0-1.24.61H18.58c0-1.06,0-2.13,0-3.19v-.75l0,0a2.21,2.21,0,0,0,.52-.89,1.49,1.49,0,0,0-.26-1.29,1.81,1.81,0,0,0-1.45-.65H10.18a1.54,1.54,0,0,0-1.7,1.64,1.41,1.41,0,0,0,.59,1.31c0,.5,0,1,0,1.51,0,1.22,0,2.48.09,3.73a9.1,9.1,0,0,0,8.53,8.09c1.47.05,3,0,4.4,0h1.63a1.73,1.73,0,0,0,1.28.61h0a1.74,1.74,0,0,0,1.25-.61H31.4c0,1.07,0,2.14,0,3.21v.68a1.57,1.57,0,0,0-.62,1.56,1.62,1.62,0,0,0,1.67,1.38h1.92a25.07,25.07,0,0,0-2.15,4.59,4,4,0,0,0,1.54,4.56,4.11,4.11,0,0,0,6.32-4.53,24.5,24.5,0,0,0-2.15-4.63h1.88a1.62,1.62,0,0,0,1.69-1.49A1.57,1.57,0,0,0,40.91,28.69Zm-18.83-6c-1.42,0-2.88,0-4.31,0a7.06,7.06,0,0,1-6.54-6.19c-.1-1.16-.09-2.32-.09-3.55,0-.56,0-1.11,0-1.67,0-.11,0-.21,0-.32v-.18a.93.93,0,0,0,0-.22h5.4a1,1,0,0,0,0,.22v1.32c0,1.17,0,2.35,0,3.52a1.76,1.76,0,0,0,1.86,1.76h5.25V22.7ZM37.31,39.1a2,2,0,0,1-2.32,0,2,2,0,0,1-.78-2.23,22.76,22.76,0,0,1,1.95-4.16,22.57,22.57,0,0,1,2,4.19A2,2,0,0,1,37.31,39.1Zm-3.85-9.56a1,1,0,0,0,0-.22V28c0-1.18,0-2.35,0-3.53a1.78,1.78,0,0,0-1.84-1.76c-.36,0-.72,0-1.07,0H26l-.32,0V17.35l.34,0h1.84c1.44,0,2.92,0,4.37,0a7,7,0,0,1,6.5,6.18c.1,1.19.09,2.44.09,3.64,0,.57,0,1.14,0,1.7v.39a1,1,0,0,0,0,.21Z"/></svg>