<svg id="Layer_1" data-name="Layer 1" xmlns="http://www.w3.org/2000/svg" viewBox="0 0 32 32"><title>print-hover</title><path id="Background" d="M16,3A13,13,0,1,1,3,16,13,13,0,0,1,16,3m0-2A15,15,0,1,0,31,16,15,15,0,0,0,16,1Z"/><path d="M24.75,15.63a4.35,4.35,0,0,0-1.25-3.06,4.27,4.27,0,0,0-1.36-.93,4.21,4.21,0,0,0-1.13-.3V7H11v4.33a4.21,4.21,0,0,0-1.13.3,4.27,4.27,0,0,0-1.36.93,4.35,4.35,0,0,0-1.25,3.06v6H11V24H21V21.66h3.75ZM19.5,8.5v2.79h-7V8.5Zm0,14h-7V18.6h7Zm3.75-2.34H21V17.1H11v3.06H8.75V15.63a2.85,2.85,0,0,1,.82-2,2.78,2.78,0,0,1,.89-.61,2.73,2.73,0,0,1,.54-.17H21a2.73,2.73,0,0,1,.54.17,2.78,2.78,0,0,1,.89.61,2.83,2.83,0,0,1,.6.9,2.86,2.86,0,0,1,.22,1.11Z"/></svg>