<svg id="Layer_1" data-name="Layer 1" xmlns="http://www.w3.org/2000/svg" viewBox="0 0 50 50"><defs><style>.cls-1{fill:#fff;}</style></defs><title>promo</title><path class="cls-1" d="M42.54,24.15l-1-.86-2.32-2.07c.28-.82.54-1.64.8-2.46l.25-.79c.07-.23.14-.46.21-.69l.09-.31a1.13,1.13,0,0,0-.76-1.4l-.11,0-.26-.07-1-.23-3-.66c-.09-.51-.21-1-.32-1.5L35,12.48l-.37-1.58-.16-.68A1.13,1.13,0,0,0,33,9.4l-1.1.34a22.8,22.8,0,0,0-2.52.87c-.59.26-.71.22-1.07-.28a20.8,20.8,0,0,0-1.74-2l-.76-.82A1.13,1.13,0,0,0,25,7.1h0a1.13,1.13,0,0,0-.84.38l-.87,1c-.69.77-1.38,1.53-2.07,2.33-1-.34-2-.65-3-1L17,9.4a1.13,1.13,0,0,0-1.43.76l-.05.17c0,.15-.08.28-.11.41-.07.32-.15.65-.23,1a25.62,25.62,0,0,0-.52,2.52.82.82,0,0,1-.08.31.94.94,0,0,1-.38.11c-.95.15-1.88.37-2.78.59l-1.16.27a1.13,1.13,0,0,0-.84,1.4l.05.19c0,.14.07.26.11.38l.31,1c.26.84.53,1.71.85,2.55a1.23,1.23,0,0,1,.05.17l-.12.11c-.78.63-1.5,1.29-2.26,2l-1,.88a1.13,1.13,0,0,0,.08,1.74l.19.13.18.14,1,.94,1.83,1.63c-.32.94-.62,1.89-.91,2.81l-.3,1c0,.13-.07.25-.11.39l0,.16a1.13,1.13,0,0,0,.84,1.39l1.19.27,3.1.68c.09.5.2,1,.32,1.46l.14.59.37,1.61.16.68A1.13,1.13,0,0,0,17,40.6l1.26-.4c1-.33,2-.64,3-1,.69.79,1.38,1.56,2.1,2.36l.85.94a1.13,1.13,0,0,0,.84.38h0a1.13,1.13,0,0,0,.84-.38l1.05-1.17c.63-.7,1.26-1.4,1.89-2.12l1.12.37.38.12,1.85.59.89.29a1.13,1.13,0,0,0,1.43-.77l0-.17c0-.14.07-.25.1-.37l.24-1.06c.21-.9.42-1.83.61-2.78l3-.67,1.27-.29a1.13,1.13,0,0,0,.84-1.4l0-.17c0-.14-.07-.26-.11-.39l-.32-1c-.28-.89-.57-1.82-.89-2.75.66-.57,1.31-1.16,2-1.75l.73-.66.4-.37.2-.18a1.13,1.13,0,0,0,0-1.67Zm-2.83,1.2c-.69.62-1.38,1.24-2.08,1.85a1.8,1.8,0,0,0-.58,2.09c.33,1,.64,1.95.94,2.9l.11.35-.1,0-3.15.69a1.85,1.85,0,0,0-1.56,1.55c-.18,1-.41,1.94-.63,2.89l-.09.37L31,37.57l-.39-.13c-.42-.13-.84-.27-1.26-.42a1.76,1.76,0,0,0-2.08.54c-.66.77-1.34,1.52-2,2.27l-.22.25h0c-.75-.83-1.47-1.64-2.19-2.46a1.86,1.86,0,0,0-1.43-.71,2.16,2.16,0,0,0-.71.13c-1,.35-2,.68-3.12,1l-.1,0L17.22,37l-.15-.62c-.13-.52-.24-1-.32-1.5a1.82,1.82,0,0,0-1.56-1.61L12,32.56h0l.09-.28c.31-1,.64-2,1-3a1.75,1.75,0,0,0-.54-2c-.67-.59-1.33-1.18-2-1.78L9.93,25h0c.74-.68,1.43-1.31,2.16-1.9a2.27,2.27,0,0,0,.76-2.83c-.3-.78-.54-1.58-.81-2.42l-.12-.39h0c.9-.22,1.75-.42,2.61-.56a2.52,2.52,0,0,0,2.34-2.33c.1-.76.29-1.51.48-2.3l.08-.33.08,0c1.09.35,2.13.68,3.17,1a1.79,1.79,0,0,0,2.09-.57c.71-.82,1.44-1.63,2.18-2.45l0-.05a18.33,18.33,0,0,1,1.51,1.74,2.82,2.82,0,0,0,3.79,1,20.56,20.56,0,0,1,2.24-.77L32.82,13l.14.61c.13.54.25,1.05.33,1.57a1.8,1.8,0,0,0,1.52,1.57l3.16.7.14,0-.2.63c-.29.9-.57,1.8-.88,2.68a1.71,1.71,0,0,0,.53,2c.84.74,1.67,1.48,2.51,2.24l0,0Z"/><path class="cls-1" d="M28.7,18.56c-.37-.28-.55-.19-.79.19q-3.6,5.84-7.24,11.66c-.09.14-.16.29-.26.47l1.42.84,7.82-12.58A10.69,10.69,0,0,1,28.7,18.56Z"/><path class="cls-1" d="M22.86,23.72a3.21,3.21,0,0,0,1.38-3.22c0-.14,0-.4,0-.65a3,3,0,0,0-2.84-2.91,3.11,3.11,0,0,0-3.46,2.17,7.34,7.34,0,0,0-.13,2.23A3.22,3.22,0,0,0,22.86,23.72Zm-3.2-2.36a6.1,6.1,0,0,1,.07-1.78,1.33,1.33,0,0,1,2.59,0,8.51,8.51,0,0,1,.13.95c0,.31,0,.55-.08.78A1.3,1.3,0,0,1,21,22.56,1.32,1.32,0,0,1,19.66,21.36Z"/><path class="cls-1" d="M29.27,25.76a3.12,3.12,0,0,0-3.39,2.43,8.71,8.71,0,0,0-.11,1.22h0c0,.26,0,.51,0,.77a3,3,0,0,0,2.86,2.89,3.1,3.1,0,0,0,3.43-2.15,7.71,7.71,0,0,0,.13-2.33A3,3,0,0,0,29.27,25.76Zm1.06,4.67a1.28,1.28,0,0,1-1.31,1,1.16,1.16,0,0,1-1.26-1,7.72,7.72,0,0,1,0-2.08A1.18,1.18,0,0,1,29,27.45a1.31,1.31,0,0,1,1.3.9,7.66,7.66,0,0,1,.16,1A8.6,8.6,0,0,1,30.33,30.43Z"/></svg>