<svg id="Layer_1" data-name="Layer 1" xmlns="http://www.w3.org/2000/svg" viewBox="0 0 35 30"><defs><style>.cls-1{fill:#f2f2f2;}.cls-2{fill:#b9b9b9;}</style></defs><title>qty-box-hover</title><rect class="cls-1" x="1.5" y="1" width="32" height="28" rx="2.87" ry="2.87"/><path class="cls-2" d="M30.63,3a.87.87,0,0,1,.87.87V26.13a.87.87,0,0,1-.87.87H4.37a.87.87,0,0,1-.87-.87V3.87A.87.87,0,0,1,4.37,3H30.63m0-2H4.37A2.87,2.87,0,0,0,1.5,3.87V26.13A2.87,2.87,0,0,0,4.37,29H30.63a2.87,2.87,0,0,0,2.87-2.87V3.87A2.87,2.87,0,0,0,30.63,1Z"/></svg>