<svg id="Layer_1" data-name="Layer 1" xmlns="http://www.w3.org/2000/svg" viewBox="0 0 100 30"><defs><style>.cls-1{fill:#fff;}.cls-2{fill:#f2f2f2;}.cls-3{fill:#b9b9b9;}</style></defs><title>qty-input-hover</title><circle id="Background" cx="85.5" cy="15.01" r="13.5"/><polygon class="cls-1" points="92.5 13.51 87 13.51 87 8.01 84 8.01 84 13.51 78.5 13.51 78.5 16.51 84 16.51 84 22.01 87 22.01 87 16.51 92.5 16.51 92.5 13.51"/><circle id="Background-2" data-name="Background" cx="14.5" cy="15.01" r="13.5"/><rect class="cls-1" x="13" y="8.01" width="3" height="14" transform="translate(29.51 0.51) rotate(90)"/><rect class="cls-2" x="34" y="1" width="32" height="28" rx="2.87" ry="2.87"/><path class="cls-3" d="M63.13,3a.87.87,0,0,1,.87.87V26.13a.87.87,0,0,1-.87.87H36.87a.87.87,0,0,1-.87-.87V3.87A.87.87,0,0,1,36.87,3H63.13m0-2H36.87A2.87,2.87,0,0,0,34,3.87V26.13A2.87,2.87,0,0,0,36.87,29H63.13A2.87,2.87,0,0,0,66,26.13V3.87A2.87,2.87,0,0,0,63.13,1Z"/></svg>