<svg id="Layer_1" data-name="Layer 1" xmlns="http://www.w3.org/2000/svg" viewBox="0 0 41 41"><defs><style>.cls-1{fill:#d73d00;}.cls-2{fill:#fff;}</style></defs><title>quick-order</title><circle id="Background" class="cls-1" cx="20.3" cy="20.75" r="20"/><path class="cls-2" d="M21.23,12.92a.6.6,0,0,1,.24.52V19.6H27.6a.59.59,0,0,1,.53.24,1.52,1.52,0,0,1,.16.79v.24a1.52,1.52,0,0,1-.16.79.59.59,0,0,1-.53.24H21.47v6.16a.59.59,0,0,1-.24.52,1.4,1.4,0,0,1-.79.17H20.2a1.4,1.4,0,0,1-.79-.17.59.59,0,0,1-.24-.52V21.9H13a.65.65,0,0,1-.53-.19,1.16,1.16,0,0,1-.16-.71v-.24q0-1.17.69-1.17h6.16V13.44a.58.58,0,0,1,.24-.53,1.51,1.51,0,0,1,.79-.16h.24A1.4,1.4,0,0,1,21.23,12.92Z"/></svg>