<svg id="Layer_1" data-name="Layer 1" xmlns="http://www.w3.org/2000/svg" viewBox="0 0 32 32"><title>quick-view-hover</title><path id="Background" d="M16,3A13,13,0,1,1,3,16,13,13,0,0,1,16,3m0-2A15,15,0,1,0,31,16,15,15,0,0,0,16,1Z"/><path d="M15.93,9.65a9.86,9.86,0,0,1,5,1.45,17.13,17.13,0,0,1,4.78,4.23c.42.53.42.81,0,1.32a16.13,16.13,0,0,1-6.12,4.91,8.78,8.78,0,0,1-7.86-.31A16.6,16.6,0,0,1,6.31,16.7c-.45-.56-.45-.83,0-1.39a15.85,15.85,0,0,1,6.51-5A8.87,8.87,0,0,1,15.93,9.65ZM11.46,16A4.55,4.55,0,1,0,16,11.45,4.51,4.51,0,0,0,11.46,16Z"/><path d="M16,18.26A2.25,2.25,0,1,1,18.26,16,2.26,2.26,0,0,1,16,18.26Z"/></svg>