<svg id="Layer_1" data-name="Layer 1" xmlns="http://www.w3.org/2000/svg" viewBox="0 0 34 34"><defs><style>.cls-1{fill:#282828;}</style></defs><title>search_1</title><path class="cls-1" d="M32.51,29.81l-6.26-6.3A14.17,14.17,0,0,0,24.92,5.15a13.94,13.94,0,0,0-19.81,0,14.16,14.16,0,0,0,0,19.92,13.94,13.94,0,0,0,18.48,1.18l6.23,6.27a1.86,1.86,0,0,0,2.63,0l.06-.06A1.88,1.88,0,0,0,32.51,29.81ZM6.58,23.6a12.08,12.08,0,0,1,0-17,11.86,11.86,0,0,1,16.86,0,12.08,12.08,0,0,1,0,17,11.86,11.86,0,0,1-16.86,0Z"/></svg>