<svg id="Layer_1" data-name="Layer 1" xmlns="http://www.w3.org/2000/svg" viewBox="0 0 52 52"><defs><style>.cls-1{fill:#282828;}.cls-2{fill:#fff;}</style></defs><title>search</title><circle id="Background" class="cls-1" cx="26" cy="26" r="25"/><path class="cls-2" d="M36.44,33.63,31.9,29.07l-.12.12a9.13,9.13,0,1,0-2.61,2.62l-.06.06,4.54,4.56a1.94,1.94,0,0,0,2.73,0l.06-.06A2,2,0,0,0,36.44,33.63ZM19.09,29.22a7.18,7.18,0,0,1,0-10.13,7.12,7.12,0,0,1,10.09,0,7.18,7.18,0,0,1,0,10.13,7.12,7.12,0,0,1-10.09,0Z"/></svg>