<svg id="Layer_1" data-name="Layer 1" xmlns="http://www.w3.org/2000/svg" viewBox="0 0 32 32"><title>share-hover</title><path d="M8.5,16a2.17,2.17,0,0,1,3.72-1.59.19.19,0,0,0,.27,0l4.74-2.38c.09,0,.13-.08.11-.2a2.19,2.19,0,1,1,3.21,1.61A2.16,2.16,0,0,1,18,13.14a.18.18,0,0,0-.26,0L13,15.47a.19.19,0,0,0-.13.24,2.54,2.54,0,0,1,0,.6c0,.1,0,.16.1.2l4.77,2.39a.17.17,0,0,0,.24,0,2.17,2.17,0,0,1,2.69-.33,2.19,2.19,0,1,1-3.31,1.55.15.15,0,0,0-.1-.19l-4.78-2.4a.15.15,0,0,0-.21,0,2.1,2.1,0,0,1-2.22.56,2.14,2.14,0,0,1-1.51-1.72.38.38,0,0,1,0-.07C8.5,16.2,8.5,16.1,8.5,16Z"/><path id="Background" d="M16,3A13,13,0,1,1,3,16,13,13,0,0,1,16,3m0-2A15,15,0,1,0,31,16,15,15,0,0,0,16,1Z"/></svg>