<svg id="Layer_1" data-name="Layer 1" xmlns="http://www.w3.org/2000/svg" viewBox="0 0 28 28"><defs><style>.cls-1{fill:#282828;}</style></defs><title>spinner</title><path class="cls-1" d="M17.46,22.14a3.42,3.42,0,1,1,3.42,3.42A3.43,3.43,0,0,1,17.46,22.14Z"/><path class="cls-1" d="M24,11.51a3.12,3.12,0,1,1-3.12,3.1A3.14,3.14,0,0,1,24,11.51Z"/><path class="cls-1" d="M20.89,9.91a2.79,2.79,0,1,1,2.79-2.78A2.81,2.81,0,0,1,20.89,9.91Z"/><path class="cls-1" d="M15.86,4a2.49,2.49,0,0,1-5,0,2.49,2.49,0,1,1,5,0Z"/><path class="cls-1" d="M8,7.14a2.17,2.17,0,1,1-2.15-2.2A2.19,2.19,0,0,1,8,7.14Z"/><path class="cls-1" d="M2.74,16.49a1.86,1.86,0,1,1,0-3.73,1.86,1.86,0,0,1,0,3.73Z"/><path class="cls-1" d="M13.35,24a1.26,1.26,0,0,1,1.26,1.24A1.24,1.24,0,1,1,13.35,24Z"/><path class="cls-1" d="M5.87,20.59a1.54,1.54,0,1,0,1.55,1.52A1.55,1.55,0,0,0,5.87,20.59Z"/></svg>