<svg id="Layer_1" data-name="Layer 1" xmlns="http://www.w3.org/2000/svg" viewBox="0 0 28 28"><defs><style>.cls-1{fill:#fff;}</style></defs><title>store white</title><path class="cls-1" d="M1.57,9.62c-.19.07-.3.12-.42.15a.48.48,0,0,1-.63-.48c0-.83,0-1.66,0-2.49,0-.3.19-.42.41-.52L5.16,4.37C7.94,3.12,10.73,1.88,13.5.62a1.09,1.09,0,0,1,1,0q6.2,2.8,12.42,5.58a.85.85,0,0,1,.61.92c0,.64,0,1.27,0,1.91s-.27.88-.92.64l-.16,0v.46q0,8.26,0,16.52c0,.74-.12.86-.85.86H2.38c-.69,0-.82-.13-.82-.82q0-5.12,0-10.25,0-3.17,0-6.35ZM13.48,26.42V26c0-3.14,0-6.28,0-9.42,0-.36-.09-.47-.46-.46q-5,0-10,0c-.37,0-.46.1-.46.46,0,3.14,0,6.28,0,9.42v.43Zm11.88,0c0-.12,0-.21,0-.31,0-3.21,0-6.42,0-9.63,0-.33-.14-.36-.41-.36q-5,0-10,0c-.36,0-.43.12-.43.45,0,3.15,0,6.3,0,9.45,0,.13,0,.26,0,.4Zm1.11-18c0-.34,0-.59,0-.84A.53.53,0,0,0,26.09,7L14.29,1.7a.83.83,0,0,0-.6,0c-.94.4-1.86.83-2.79,1.25L1.81,7.05c-.1,0-.25.13-.26.21,0,.37,0,.75,0,1.13h.14l12-5.46a.73.73,0,0,1,.54,0q5.07,2.29,10.13,4.6Z"/></svg>