<svg id="Layer_1" data-name="Layer 1" xmlns="http://www.w3.org/2000/svg" viewBox="0 0 34 50"><defs><style>.cls-1{fill:#282828;}</style></defs><title>store-dt</title><path class="cls-1" d="M33.84,15.05A16.94,16.94,0,0,0,17,0c-1.23.16-2.49.22-3.7.5A16.64,16.64,0,0,0,.07,17a32.28,32.28,0,0,0,3.17,12.7A81.8,81.8,0,0,0,16.1,49.49,1.07,1.07,0,0,0,18,49.4c2.19-2.86,4.45-5.68,6.49-8.64a59.91,59.91,0,0,0,8-15.54A24.69,24.69,0,0,0,33.84,15.05ZM7,26.93A13.63,13.63,0,0,1,7,7.4a14.31,14.31,0,0,1,20,0,13.63,13.63,0,0,1,0,19.53A14.31,14.31,0,0,1,7,26.93Z"/></svg>