<svg id="Layer_1" data-name="Layer 1" xmlns="http://www.w3.org/2000/svg" viewBox="0 0 50 50"><title>Tiling-hover</title><path d="M13.43,19.82h0m-.13.08,3,2L20.89,25c-2.49,1.67-5.06,3.4-7.6,5.1L5.59,25l3.2-2.12,1.42-.94L12,20.72l1.24-.82h0m0-2.14a2.09,2.09,0,0,0-1.16.41l-3.07,2c-1.65,1.1-3.31,2.18-5,3.29a1.8,1.8,0,0,0,0,3l8.18,5.41a1.82,1.82,0,0,0,1,.33,1.77,1.77,0,0,0,1-.32q4.06-2.7,8.11-5.43a1.77,1.77,0,0,0,.8-1.48,1.84,1.84,0,0,0-.9-1.59l-7.84-5.26a2.05,2.05,0,0,0-1.15-.4Z"/><path d="M36.82,19.82h0m-.12.07,2.15,1.42L44.41,25,39.7,28.11l-3,2-7.15-4.8-.45-.3,4.65-3.12,2-1.34.35-.23.6-.4m0-2.14a2,2,0,0,0-1.11.37l-1,.67-6.94,4.66a1.81,1.81,0,0,0,0,3.06l8,5.37a1.8,1.8,0,0,0,2.1,0l8.06-5.33a1.81,1.81,0,0,0,0-3.14l-8-5.32a1.93,1.93,0,0,0-1.07-.35Z"/><path d="M25,10.85l7.61,5.1-2.94,2L26.53,20l-1.21.81-.32.22L17.3,16l7-4.62.73-.49m0-2.14a1.94,1.94,0,0,0-1.08.36l-8.09,5.37a1.8,1.8,0,0,0,0,3l8.12,5.38a1.79,1.79,0,0,0,2.12,0l1.62-1.09,6.37-4.27a1.81,1.81,0,0,0,.84-1.54A1.84,1.84,0,0,0,34,14.4L26.1,9.08A2,2,0,0,0,25,8.71Z"/><path d="M25.12,28.86h0m-.12.08,5.36,3.6L32.6,34l-4.07,2.73-1,.7-.82.55L25,39.14,17.3,34l7.39-4.9.3-.2m0-2.14a1.94,1.94,0,0,0-1.08.36l-8.11,5.38a1.8,1.8,0,0,0,0,3L24,41a1.86,1.86,0,0,0,1,.34,1.91,1.91,0,0,0,1.07-.36l2.58-1.73L34,35.58a1.82,1.82,0,0,0,0-3.07l-8-5.34A1.94,1.94,0,0,0,25,26.8Z"/></svg>