<svg id="Layer_1" data-name="Layer 1" xmlns="http://www.w3.org/2000/svg" viewBox="0 0 50 50"><title>Tools-hover</title><path d="M41.14,22.74,40.38,22c-.42-.41-.83-.83-1.24-1.25a2.45,2.45,0,0,0-2.6-.71.71.71,0,0,1-.4,0,1.53,1.53,0,0,1-.33-.28,4.77,4.77,0,0,0,.18-1,2.81,2.81,0,0,0-1-2.1l-1.29-1.27c-1.21-1.2-2.46-2.43-3.65-3.68a7.74,7.74,0,0,0-3.73-2.16,38.62,38.62,0,0,0-9.1-1.06,1.71,1.71,0,0,0-.71,3.28,20.33,20.33,0,0,1,6.62,5.65,6.16,6.16,0,0,1,.69,1.3l0,0a.4.4,0,0,1-.07.09c-.33.31-.64.64-.95,1l-.69.72-6.64,6.63L8.88,33.79a2.94,2.94,0,0,0,0,4.48l1.66,1.66.55.55a3.22,3.22,0,0,0,2.27,1.06,3.25,3.25,0,0,0,2.28-1.07l13.9-13.88.91-.92a.64.64,0,0,1,.13.16,1.39,1.39,0,0,1-.12.55,2.16,2.16,0,0,0,.45,2c.84.92,1.72,1.81,2.62,2.63a2.86,2.86,0,0,0,3.9-.11l3.71-3.7A3,3,0,0,0,41.14,22.74ZM14.17,39c-.62.62-1,.62-1.61,0L12,38.45,10.36,36.8c-.57-.57-.58-1,0-1.54L17,28.63l5.57-5.56,3.78,3.78Zm25.5-13.28L36,29.41a.79.79,0,0,1-1,.05c-.85-.77-1.67-1.6-2.46-2.47l0,0c.59-1.84-.21-2.52-1.31-3.45l-.08-.07a1,1,0,0,0-1.42.06l-.5.51-1.09,1.11-.26.26L24,21.59l.34-.36c.29-.31.58-.61.88-.9a2.11,2.11,0,0,0,.53-2.45,7.86,7.86,0,0,0-.95-1.75,22.57,22.57,0,0,0-6.1-5.54,32.67,32.67,0,0,1,7.1.94,5.65,5.65,0,0,1,2.76,1.58c1.21,1.27,2.47,2.51,3.69,3.72l1.28,1.27c.32.32.36.46.35.53a3.53,3.53,0,0,1-.13.63c0,.16-.09.34-.13.54a1,1,0,0,0,.3,1l.18.19a4,4,0,0,0,1,.86,2.74,2.74,0,0,0,1.95.2.41.41,0,0,1,.53.14c.42.44.85.87,1.28,1.29l.74.74A.92.92,0,0,1,39.67,25.72Z"/></svg>