<svg id="Layer_1" data-name="Layer 1" xmlns="http://www.w3.org/2000/svg" viewBox="0 0 34 24"><defs><style>.cls-1{fill:#282828;}</style></defs><title>trolley</title><path class="cls-1" d="M32.34,15.74c-5.83,0-15,0-20.2,0l-.26,0a1,1,0,0,1-.05-.15C10.64,11.3,9.44,7.07,8.31,3.1A3.45,3.45,0,0,0,4.88.64c-1,0-2,0-3.12,0a.75.75,0,0,0,0,1.5c1.09,0,2.09,0,3.06,0a2,2,0,0,1,2,1.37C8,7.48,9.2,11.71,10.37,16a1.58,1.58,0,0,0,1.75,1.27h2.06a3.27,3.27,0,1,0,3.15,0h9.8a3.27,3.27,0,1,0,3.15,0h2.05a.75.75,0,0,0,0-1.5ZM18,20.1a2.27,2.27,0,1,1-2.27-2.27A2.27,2.27,0,0,1,18,20.1ZM31,20.1a2.27,2.27,0,1,1-2.27-2.27A2.27,2.27,0,0,1,31,20.1Z"/></svg>