<svg id="Layer_1" data-name="Layer 1" xmlns="http://www.w3.org/2000/svg" viewBox="0 0 52 52"><defs><style>.cls-1{fill:#fff;}.cls-2{fill:#2caae1;}</style></defs><title>twitter-hover</title><circle id="Background" class="cls-1" cx="26" cy="26" r="25"/><path id="Background-2" data-name="Background" class="cls-2" d="M26,5A21,21,0,1,1,5,26,21,21,0,0,1,26,5m0-4A25,25,0,1,0,51,26,25,25,0,0,0,26,1Z"/><path class="cls-2" d="M40.08,18.9a11.22,11.22,0,0,1-2.69,2.77q0,.23,0,.7a15.22,15.22,0,0,1-.63,4.31,15.56,15.56,0,0,1-1.92,4.12,16.21,16.21,0,0,1-3.06,3.49,13.6,13.6,0,0,1-4.28,2.42,15.66,15.66,0,0,1-5.36.91,14.88,14.88,0,0,1-8.23-2.41,11.27,11.27,0,0,0,1.29.07A10.5,10.5,0,0,0,21.87,33a5.37,5.37,0,0,1-5-3.72,6.85,6.85,0,0,0,1,.08,5.51,5.51,0,0,0,1.41-.18,5.27,5.27,0,0,1-3.08-1.85A5.17,5.17,0,0,1,15,23.91v-.07a5.31,5.31,0,0,0,2.42.68,5.35,5.35,0,0,1-1.74-1.91,5.37,5.37,0,0,1,.08-5.26,15.2,15.2,0,0,0,4.89,4A14.94,14.94,0,0,0,26.8,23a5.94,5.94,0,0,1-.13-1.23,5.37,5.37,0,0,1,9.28-3.67,10.51,10.51,0,0,0,3.4-1.29,5.21,5.21,0,0,1-2.36,3A10.67,10.67,0,0,0,40.08,18.9Z"/></svg>