<svg id="Layer_1" data-name="Layer 1" xmlns="http://www.w3.org/2000/svg" viewBox="0 0 22 22"><title>use-location-hover</title><circle cx="10.95" cy="11" r="3.82" transform="translate(-4.57 10.96) rotate(-45)"/><path d="M21,10.19H19.32a8.4,8.4,0,0,0-7.69-7.57V1a.75.75,0,0,0-1.5,0V2.63a8.41,8.41,0,0,0-7.56,7.56H1a.75.75,0,0,0,0,1.5H2.57a8.4,8.4,0,0,0,7.57,7.69V21a.75.75,0,0,0,1.5,0V19.38a8.39,8.39,0,0,0,7.69-7.69H21a.75.75,0,0,0,0-1.5Zm-5.16,5.7a6.91,6.91,0,1,1,2-4.89A6.87,6.87,0,0,1,15.84,15.89Z"/></svg>