<svg id="Layer_1" data-name="Layer 1" xmlns="http://www.w3.org/2000/svg" viewBox="0 0 40 40"><defs><style>.cls-1{fill:#121b20;}.cls-2{fill:#fff;}</style></defs><title>user-circle</title><circle id="Background" class="cls-1" cx="20" cy="20" r="17.5"/><path id="Background-2" data-name="Background" class="cls-2" d="M20,4.5A15.5,15.5,0,1,1,4.5,20,15.52,15.52,0,0,1,20,4.5m0-2A17.5,17.5,0,1,0,37.5,20,17.5,17.5,0,0,0,20,2.5Z"/><path class="cls-2" d="M29.49,27.51H10.55c0-.77,0-1.52,0-2.28a1,1,0,0,1,.23-.47A9.11,9.11,0,0,1,16,21a13.29,13.29,0,0,1,9.84.74,8.39,8.39,0,0,1,3.41,3,1.56,1.56,0,0,1,.22.73C29.51,26.19,29.49,26.83,29.49,27.51Z"/><path class="cls-2" d="M24.73,14.74A4.72,4.72,0,1,1,20,10,4.71,4.71,0,0,1,24.73,14.74Z"/></svg>